<svg xmlns="http://www.w3.org/2000/svg" xmlns:xlink="http://www.w3.org/1999/xlink" xmlns:inkscape="http://www.inkscape.org/namespaces/inkscape" version="1.1" width="426" height="160.08" viewBox="0 0 426 160.08">
<defs>
<clipPath id="clip_1">
<path transform="matrix(.24,0,0,.24,0,0)" d="M78.125 28.125H1693.75V640.625H78.125Z" clip-rule="evenodd"/>
</clipPath>
</defs>
<g clip-path="url(#clip_1)">
<text xml:space="preserve" transform="matrix(.65449628 0 0 .65449628 -387.09757 -3269.9686)" font-size="16" font-family="Arial"><tspan y="5141" x="631.6406 642.3126 651.2086 660.1046 665.4326 673.4326">Source</tspan></text>
<text xml:space="preserve" transform="matrix(.65449628 0 0 .65449628 -387.09757 -3269.9686)" font-size="16" font-family="Arial"><tspan y="5161" x="637.8594 649.4114 658.3074 667.20339">Code</tspan></text>
<path transform="matrix(.65449628,0,0,.65449628,-386.77027,-3269.641)" d="M642.83 5124.09V5084.08H660.83V5093.08C660.83 5093.35 660.94 5093.6 661.12 5093.79 661.31 5093.98 661.57 5094.08 661.83 5094.08H670.83V5124.09H642.83ZM662.83 5085.49 669.42 5092.08H662.83V5085.49ZM672.54 5092.38 662.54 5082.37C662.35 5082.19 662.1 5082.08 661.83 5082.08H642.83C641.65 5082.08 640.83 5082.9 640.83 5084.08V5124.09C640.83 5125.23 641.69 5126.09 642.83 5126.09H670.83C671.97 5126.09 672.83 5125.23 672.83 5124.09V5093.08C672.83 5092.82 672.73 5092.56 672.54 5092.38Z" fill="#232f3d"/>
<text xml:space="preserve" transform="matrix(.65449628 0 0 .65449628 -387.09757 -3269.9686)" font-size="10" font-family="Arial" font-weight="bold"><tspan y="5112" x="642.53128 648.3713 653.9313 660.04129 665.60128">&#x003c;abc&#x003e;</tspan></text>
<path transform="matrix(.65449628,0,0,.65449628,-386.77027,-3269.641)" d="M693.21 5127.23 693.29 5107.9 729.29 5108.05 729.37 5088.99 760.25 5117.85 729.13 5146.44 729.21 5127.38 693.21 5127.23Z" fill="#f5f5f5"/>
<path transform="matrix(.65449628,0,0,.65449628,-386.77027,-3269.641)" stroke-width="1" stroke-linecap="butt" stroke-miterlimit="10" stroke-linejoin="miter" fill="none" stroke="#666666" d="M693.21 5127.23 693.29 5107.9 729.29 5108.05 729.37 5088.99 760.25 5117.85 729.13 5146.44 729.21 5127.38 693.21 5127.23Z"/>
<path transform="matrix(.65449628,0,0,.65449628,-386.77027,-3269.641)" d="M801.48 5008.12H1032.52C1033.6001 5008.1208 1034.6776 5008.1735 1035.7526 5008.2795 1036.8274 5008.385 1037.8945 5008.543 1038.954 5008.7536 1040.0134 5008.965 1041.0599 5009.227 1042.0935 5009.5407 1043.1271 5009.854 1044.1428 5010.2175 1045.1408 5010.6306 1046.1387 5011.044 1047.114 5011.505 1048.0667 5012.014 1049.0192 5012.5236 1049.9446 5013.078 1050.8427 5013.6779 1051.7407 5014.2785 1052.6073 5014.9216 1053.4423 5015.6066 1054.2772 5016.2917 1055.0765 5017.016 1055.8403 5017.7795 1056.6041 5018.543 1057.3286 5019.3425 1058.0138 5020.1774 1058.699 5021.0129 1059.3416 5021.879 1059.9417 5022.7766 1060.5418 5023.675 1061.0964 5024.6 1061.6056 5025.5529 1062.1148 5026.5056 1062.576 5027.4807 1062.9894 5028.4787 1063.4028 5029.477 1063.7662 5030.4929 1064.0798 5031.526 1064.3934 5032.5598 1064.6555 5033.606 1064.8662 5034.665 1065.077 5035.725 1065.2354 5036.7927 1065.3412 5037.8679 1065.447 5038.943 1065.5 5040.0207 1065.5 5041.1V5195.02C1065.5 5196.1 1065.447 5197.1779 1065.3412 5198.253 1065.2354 5199.3278 1065.077 5200.395 1064.8662 5201.454 1064.6555 5202.513 1064.3934 5203.56 1064.0798 5204.5939 1063.7662 5205.6276 1063.4028 5206.643 1062.9894 5207.6408 1062.576 5208.6389 1062.1148 5209.614 1061.6056 5210.5666 1061.0964 5211.519 1060.5418 5212.4445 1059.9417 5213.3425 1059.3416 5214.24 1058.699 5215.107 1058.0138 5215.9426 1057.3286 5216.777 1056.6041 5217.576 1055.8403 5218.34 1055.0765 5219.104 1054.2772 5219.828 1053.4423 5220.513 1052.6073 5221.198 1051.7407 5221.841 1050.8427 5222.441 1049.9446 5223.041 1049.0192 5223.5959 1048.0665 5224.105 1047.114 5224.6145 1046.1387 5225.0759 1045.1408 5225.489 1044.1428 5225.9025 1043.1271 5226.266 1042.0935 5226.579 1041.0599 5226.893 1040.0134 5227.1555 1038.954 5227.3659 1037.8945 5227.577 1036.8274 5227.7355 1035.7526 5227.841 1034.6776 5227.947 1033.6001 5228 1032.52 5228H801.48C800.3999 5228 799.3224 5227.947 798.24746 5227.841 797.17257 5227.7355 796.10537 5227.577 795.04598 5227.3659 793.9866 5227.1555 792.94009 5226.893 791.90646 5226.579 790.8728 5226.266 789.857 5225.9025 788.8591 5225.489 787.8612 5225.0759 786.886 5224.6149 785.93338 5224.1057 784.9808 5223.596 784.0554 5223.041 783.1573 5222.441 782.2593 5221.841 781.39279 5221.198 780.55776 5220.513 779.7228 5219.828 778.9234 5219.104 778.1596 5218.34 777.3959 5217.576 776.6714 5216.777 775.98617 5215.9426 775.3009 5215.107 774.6582 5214.24 774.0581 5213.3425 773.45809 5212.4445 772.90347 5211.519 772.3943 5210.5666 771.8851 5209.614 771.4238 5208.6389 771.01046 5207.6408 770.5971 5206.643 770.2337 5205.6276 769.92019 5204.5939 769.60659 5203.56 769.3444 5202.513 769.13369 5201.454 768.923 5200.395 768.7647 5199.3278 768.6588 5198.2526 768.5529 5197.1779 768.5 5196.1 768.5 5195.02V5041.1C768.5 5040.0207 768.5529 5038.943 768.6588 5037.867 768.7647 5036.7927 768.923 5035.725 769.13369 5034.665 769.3444 5033.606 769.60659 5032.5598 769.92019 5031.526 770.2337 5030.4929 770.5971 5029.477 771.01046 5028.4787 771.4238 5027.4807 771.8851 5026.5056 772.3942 5025.5529 772.90347 5024.6 773.45809 5023.675 774.0581 5022.7766 774.6582 5021.879 775.3009 5021.0129 775.98617 5020.1774 776.6714 5019.3425 777.3959 5018.543 778.1596 5017.7795 778.9234 5017.016 779.7228 5016.2917 780.55776 5015.6066 781.39279 5014.9216 782.2593 5014.2785 783.1573 5013.6779 784.0554 5013.078 784.9808 5012.5236 785.93338 5012.014 786.886 5011.505 787.8612 5011.044 788.8591 5010.6306 789.857 5010.2175 790.8728 5009.854 791.90646 5009.5407 792.94009 5009.227 793.9865 5008.965 795.0459 5008.7536 796.1053 5008.543 797.1725 5008.385 798.24746 5008.2795 799.3224 5008.1735 800.3999 5008.1208 801.48 5008.12Z" fill="#d0cee2"/>
<path transform="matrix(.65449628,0,0,.65449628,-386.77027,-3269.641)" stroke-width="1" stroke-linecap="butt" stroke-miterlimit="4" stroke-linejoin="miter" fill="none" stroke="#56517e" d="M801.48 5008.12H1032.52C1033.6001 5008.1208 1034.6776 5008.1735 1035.7526 5008.2795 1036.8274 5008.385 1037.8945 5008.543 1038.954 5008.7536 1040.0134 5008.965 1041.0599 5009.227 1042.0935 5009.5407 1043.1271 5009.854 1044.1428 5010.2175 1045.1408 5010.6306 1046.1387 5011.044 1047.114 5011.505 1048.0667 5012.014 1049.0192 5012.5236 1049.9446 5013.078 1050.8427 5013.6779 1051.7407 5014.2785 1052.6073 5014.9216 1053.4423 5015.6066 1054.2772 5016.2917 1055.0765 5017.016 1055.8403 5017.7795 1056.6041 5018.543 1057.3286 5019.3425 1058.0138 5020.1774 1058.699 5021.0129 1059.3416 5021.879 1059.9417 5022.7766 1060.5418 5023.675 1061.0964 5024.6 1061.6056 5025.5529 1062.1148 5026.5056 1062.576 5027.4807 1062.9894 5028.4787 1063.4028 5029.477 1063.7662 5030.4929 1064.0798 5031.526 1064.3934 5032.5598 1064.6555 5033.606 1064.8662 5034.665 1065.077 5035.725 1065.2354 5036.7927 1065.3412 5037.8679 1065.447 5038.943 1065.5 5040.0207 1065.5 5041.1V5195.02C1065.5 5196.1 1065.447 5197.1779 1065.3412 5198.253 1065.2354 5199.3278 1065.077 5200.395 1064.8662 5201.454 1064.6555 5202.513 1064.3934 5203.56 1064.0798 5204.5939 1063.7662 5205.6276 1063.4028 5206.643 1062.9894 5207.6408 1062.576 5208.6389 1062.1148 5209.614 1061.6056 5210.5666 1061.0964 5211.519 1060.5418 5212.4445 1059.9417 5213.3425 1059.3416 5214.24 1058.699 5215.107 1058.0138 5215.9426 1057.3286 5216.777 1056.6041 5217.576 1055.8403 5218.34 1055.0765 5219.104 1054.2772 5219.828 1053.4423 5220.513 1052.6073 5221.198 1051.7407 5221.841 1050.8427 5222.441 1049.9446 5223.041 1049.0192 5223.5959 1048.0665 5224.105 1047.114 5224.6145 1046.1387 5225.0759 1045.1408 5225.489 1044.1428 5225.9025 1043.1271 5226.266 1042.0935 5226.579 1041.0599 5226.893 1040.0134 5227.1555 1038.954 5227.3659 1037.8945 5227.577 1036.8274 5227.7355 1035.7526 5227.841 1034.6776 5227.947 1033.6001 5228 1032.52 5228H801.48C800.3999 5228 799.3224 5227.947 798.24746 5227.841 797.17257 5227.7355 796.10537 5227.577 795.04598 5227.3659 793.9866 5227.1555 792.94009 5226.893 791.90646 5226.579 790.8728 5226.266 789.857 5225.9025 788.8591 5225.489 787.8612 5225.0759 786.886 5224.6149 785.93338 5224.1057 784.9808 5223.596 784.0554 5223.041 783.1573 5222.441 782.2593 5221.841 781.39279 5221.198 780.55776 5220.513 779.7228 5219.828 778.9234 5219.104 778.1596 5218.34 777.3959 5217.576 776.6714 5216.777 775.98617 5215.9426 775.3009 5215.107 774.6582 5214.24 774.0581 5213.3425 773.45809 5212.4445 772.90347 5211.519 772.3943 5210.5666 771.8851 5209.614 771.4238 5208.6389 771.01046 5207.6408 770.5971 5206.643 770.2337 5205.6276 769.92019 5204.5939 769.60659 5203.56 769.3444 5202.513 769.13369 5201.454 768.923 5200.395 768.7647 5199.3278 768.6588 5198.2526 768.5529 5197.1779 768.5 5196.1 768.5 5195.02V5041.1C768.5 5040.0207 768.5529 5038.943 768.6588 5037.867 768.7647 5036.7927 768.923 5035.725 769.13369 5034.665 769.3444 5033.606 769.60659 5032.5598 769.92019 5031.526 770.2337 5030.4929 770.5971 5029.477 771.01046 5028.4787 771.4238 5027.4807 771.8851 5026.5056 772.3942 5025.5529 772.90347 5024.6 773.45809 5023.675 774.0581 5022.7766 774.6582 5021.879 775.3009 5021.0129 775.98617 5020.1774 776.6714 5019.3425 777.3959 5018.543 778.1596 5017.7795 778.9234 5017.016 779.7228 5016.2917 780.55776 5015.6066 781.39279 5014.9216 782.2593 5014.2785 783.1573 5013.6779 784.0554 5013.078 784.9808 5012.5236 785.93338 5012.014 786.886 5011.505 787.8612 5011.044 788.8591 5010.6306 789.857 5010.2175 790.8728 5009.854 791.90646 5009.5407 792.94009 5009.227 793.9865 5008.965 795.0459 5008.7536 796.1053 5008.543 797.1725 5008.385 798.24746 5008.2795 799.3224 5008.1735 800.3999 5008.1208 801.48 5008.12Z"/>
<text xml:space="preserve" transform="matrix(.65449628 0 0 .65449628 -387.09757 -3269.9686)" font-size="16" font-family="Arial"><tspan y="5139" x="1149.5938 1154.0418 1162.9378 1167.3858 1176.2817 1181.6098 1194.9378">Interm.</tspan></text>
<text xml:space="preserve" transform="matrix(.65449628 0 0 .65449628 -387.09757 -3269.9686)" font-size="16" font-family="Arial"><tspan y="5159" x="1155.375 1166.927 1175.823 1184.719">Code</tspan></text>
<path transform="matrix(.65449628,0,0,.65449628,-386.77027,-3269.641)" d="M1175.55 5097.27 1177.45 5097.9 1173.45 5109.9 1171.55 5109.27 1175.55 5097.27ZM1185.13 5102.81C1185.37 5102.99 1185.5 5103.28 1185.5 5103.59 1185.5 5103.89 1185.37 5104.18 1185.13 5104.37L1180.13 5108.37 1178.88 5106.81 1182.9 5103.59 1178.88 5100.37 1180.13 5098.8 1185.13 5102.81ZM1170.13 5100.37 1166.1 5103.59 1170.13 5106.81 1168.88 5108.37 1163.87 5104.37C1163.64 5104.18 1163.5 5103.89 1163.5 5103.59 1163.5 5103.28 1163.64 5103 1163.87 5102.81L1168.88 5098.8 1170.13 5100.37ZM1160.5 5121.59 1160.51 5081.58H1178.5V5090.58C1178.5 5090.85 1178.61 5091.1 1178.8 5091.29 1178.98 5091.48 1179.24 5091.58 1179.5 5091.58H1188.5V5121.59H1160.5ZM1180.5 5082.99 1187.09 5089.58H1180.5V5082.99ZM1190.21 5089.88 1180.21 5079.87C1180.02 5079.69 1179.77 5079.58 1179.5 5079.58H1160.5C1159.32 5079.58 1158.5 5080.4 1158.5 5081.58V5121.59C1158.5 5122.73 1159.36 5123.59 1160.5 5123.59H1188.5C1189.65 5123.59 1190.51 5122.73 1190.51 5121.59V5090.58C1190.51 5090.32 1190.4 5090.06 1190.21 5089.88Z" fill="#232f3d"/>
<path transform="matrix(.65449628,0,0,.65449628,-386.77027,-3269.641)" d="M1071.46 5129.94 1071.54 5110.61 1107.54 5110.76 1107.62 5091.7 1138.5 5120.56 1107.38 5149.15 1107.46 5130.09 1071.46 5129.94Z" fill="#f5f5f5"/>
<path transform="matrix(.65449628,0,0,.65449628,-386.77027,-3269.641)" stroke-width="1" stroke-linecap="butt" stroke-miterlimit="10" stroke-linejoin="miter" fill="none" stroke="#666666" d="M1071.46 5129.94 1071.54 5110.61 1107.54 5110.76 1107.62 5091.7 1138.5 5120.56 1107.38 5149.15 1107.46 5130.09 1071.46 5129.94Z"/>
<path transform="matrix(.65449628,0,0,.65449628,-386.77027,-3269.641)" d="M810.05 5035.81H898.95C899.7084 5035.81 900.4594 5035.884 901.2032 5036.0319 901.947 5036.1799 902.66928 5036.3986 903.36996 5036.689 904.07058 5036.979 904.7362 5037.335 905.36679 5037.7565 905.9974 5038.1774 906.5808 5038.6564 907.11709 5039.193 907.6533 5039.7287 908.1321 5040.312 908.55337 5040.9426 908.97476 5041.5729 909.3305 5042.2385 909.6207 5042.939 909.91098 5043.6398 910.13009 5044.362 910.278 5045.106 910.42599 5045.85 910.49996 5046.6018 910.5 5047.36V5101.2604C910.49996 5102.0187 910.42599 5102.7697 910.278 5103.513 910.13009 5104.257 909.911 5104.9787 909.6208 5105.679 909.33059 5106.38 908.97476 5107.0456 908.55337 5107.677 908.1321 5108.307 907.6533 5108.89 907.11709 5109.427 906.5808 5109.963 905.9974 5110.4416 905.3668 5110.863 904.7362 5111.284 904.07058 5111.6398 903.3699 5111.93 902.66928 5112.22 901.947 5112.4396 901.2032 5112.5876 900.4594 5112.7355 899.7084 5112.8098 898.95 5112.81H810.05C809.29159 5112.8098 808.54049 5112.7355 807.79666 5112.587 807.0528 5112.439 806.33059 5112.22 805.62997 5111.93 804.9293 5111.6398 804.2637 5111.2839 803.63308 5110.8625 803.0025 5110.4416 802.4191 5109.963 801.8829 5109.427 801.34658 5108.89 800.8678 5108.3068 800.4465 5107.6765 800.0251 5107.0456 799.6693 5106.38 799.3791 5105.679 799.08889 5104.9787 798.8698 5104.2565 798.72189 5103.5129 798.5739 5102.769 798.49996 5102.0187 798.5 5101.2604V5047.36C798.49996 5046.6018 798.5739 5045.85 798.72189 5045.106 798.8698 5044.3625 799.08889 5043.64 799.3791 5042.9396 799.6693 5042.239 800.0251 5041.5729 800.4464 5040.9426 800.86776 5040.312 801.34658 5039.7287 801.8829 5039.193 802.4191 5038.6564 803.0025 5038.1774 803.63308 5037.7565 804.2637 5037.335 804.9293 5036.979 805.62997 5036.689 806.33059 5036.3986 807.05288 5036.1799 807.7967 5036.0319 808.54049 5035.884 809.29159 5035.81 810.05 5035.81Z" fill="#fad7ac"/>
<path transform="matrix(.65449628,0,0,.65449628,-386.77027,-3269.641)" stroke-width="1" stroke-linecap="butt" stroke-miterlimit="4" stroke-linejoin="miter" fill="none" stroke="#b46504" d="M810.05 5035.81H898.95C899.7084 5035.81 900.4594 5035.884 901.2032 5036.0319 901.947 5036.1799 902.66928 5036.3986 903.36996 5036.689 904.07058 5036.979 904.7362 5037.335 905.36679 5037.7565 905.9974 5038.1774 906.5808 5038.6564 907.11709 5039.193 907.6533 5039.7287 908.1321 5040.312 908.55337 5040.9426 908.97476 5041.5729 909.3305 5042.2385 909.6207 5042.939 909.91098 5043.6398 910.13009 5044.362 910.278 5045.106 910.42599 5045.85 910.49996 5046.6018 910.5 5047.36V5101.2604C910.49996 5102.0187 910.42599 5102.7697 910.278 5103.513 910.13009 5104.257 909.911 5104.9787 909.6208 5105.679 909.33059 5106.38 908.97476 5107.0456 908.55337 5107.677 908.1321 5108.307 907.6533 5108.89 907.11709 5109.427 906.5808 5109.963 905.9974 5110.4416 905.3668 5110.863 904.7362 5111.284 904.07058 5111.6398 903.3699 5111.93 902.66928 5112.22 901.947 5112.4396 901.2032 5112.5876 900.4594 5112.7355 899.7084 5112.8098 898.95 5112.81H810.05C809.29159 5112.8098 808.54049 5112.7355 807.79666 5112.587 807.0528 5112.439 806.33059 5112.22 805.62997 5111.93 804.9293 5111.6398 804.2637 5111.2839 803.63308 5110.8625 803.0025 5110.4416 802.4191 5109.963 801.8829 5109.427 801.34658 5108.89 800.8678 5108.3068 800.4465 5107.6765 800.0251 5107.0456 799.6693 5106.38 799.3791 5105.679 799.08889 5104.9787 798.8698 5104.2565 798.72189 5103.5129 798.5739 5102.769 798.49996 5102.0187 798.5 5101.2604V5047.36C798.49996 5046.6018 798.5739 5045.85 798.72189 5045.106 798.8698 5044.3625 799.08889 5043.64 799.3791 5042.9396 799.6693 5042.239 800.0251 5041.5729 800.4464 5040.9426 800.86776 5040.312 801.34658 5039.7287 801.8829 5039.193 802.4191 5038.6564 803.0025 5038.1774 803.63308 5037.7565 804.2637 5037.335 804.9293 5036.979 805.62997 5036.689 806.33059 5036.3986 807.05288 5036.1799 807.7967 5036.0319 808.54049 5035.884 809.29159 5035.81 810.05 5035.81Z"/>
<text xml:space="preserve" transform="matrix(.65449628 0 0 .65449628 -387.09757 -3269.9686)" font-size="16" font-family="Arial"><tspan y="5070" x="802.0781 813.6301 818.9581 827.8541 836.7501 841.1981 850.0941 854.5421 865.2141 873.2141 886.5421 895.4381 904.3341">Create Symbol</tspan></text>
<text xml:space="preserve" transform="matrix(.65449628 0 0 .65449628 -387.09757 -3269.9686)" font-size="16" font-family="Arial"><tspan y="5090" x="835.875 843.875 852.771 861.667 865.219">Table</tspan></text>
<path transform="matrix(.65449628,0,0,.65449628,-386.77027,-3269.641)" d="M810.05 5124.81H898.95C899.7084 5124.81 900.4594 5124.884 901.2032 5125.0319 901.947 5125.1799 902.66928 5125.399 903.36996 5125.689 904.07058 5125.9797 904.7362 5126.335 905.36679 5126.7565 905.9974 5127.1779 906.5808 5127.6569 907.11709 5128.193 907.6533 5128.7287 908.1321 5129.312 908.55337 5129.943 908.97476 5130.5729 909.3305 5131.2385 909.6207 5131.939 909.91098 5132.6398 910.13009 5133.3625 910.278 5134.106 910.42599 5134.85 910.49996 5135.6018 910.5 5136.36V5190.2604C910.49996 5191.0187 910.42599 5191.7697 910.278 5192.513 910.13009 5193.257 909.911 5193.9787 909.6208 5194.679 909.33059 5195.38 908.97476 5196.0456 908.55337 5196.6765 908.1321 5197.3068 907.6533 5197.89 907.11709 5198.427 906.5808 5198.963 905.9974 5199.4416 905.3668 5199.863 904.7362 5200.284 904.07058 5200.6398 903.3699 5200.93 902.66928 5201.2209 901.947 5201.44 901.2032 5201.588 900.4594 5201.736 899.7084 5201.8098 898.95 5201.81H810.05C809.29159 5201.8098 808.54049 5201.736 807.79666 5201.588 807.0528 5201.44 806.33059 5201.2209 805.62997 5200.9309 804.9293 5200.64 804.2637 5200.2849 803.63308 5199.8635 803.0025 5199.442 802.4191 5198.963 801.8829 5198.427 801.34658 5197.89 800.8678 5197.3068 800.4465 5196.6765 800.0251 5196.046 799.6693 5195.3806 799.3791 5194.6799 799.08889 5193.979 798.8698 5193.257 798.72189 5192.513 798.5739 5191.7697 798.49996 5191.0187 798.5 5190.2604V5136.36C798.49996 5135.6018 798.5739 5134.85 798.72189 5134.1066 798.8698 5133.3625 799.08889 5132.64 799.3791 5131.9396 799.6693 5131.239 800.0251 5130.573 800.4464 5129.943 800.86776 5129.312 801.34658 5128.7287 801.8829 5128.193 802.4191 5127.6569 803.0025 5127.1779 803.63308 5126.7565 804.2637 5126.335 804.9293 5125.9797 805.62997 5125.689 806.33059 5125.399 807.05288 5125.1799 807.7967 5125.0319 808.54049 5124.884 809.29159 5124.81 810.05 5124.81Z" fill="#fad7ac"/>
<path transform="matrix(.65449628,0,0,.65449628,-386.77027,-3269.641)" stroke-width="1" stroke-linecap="butt" stroke-miterlimit="4" stroke-linejoin="miter" fill="none" stroke="#b46504" d="M810.05 5124.81H898.95C899.7084 5124.81 900.4594 5124.884 901.2032 5125.0319 901.947 5125.1799 902.66928 5125.399 903.36996 5125.689 904.07058 5125.9797 904.7362 5126.335 905.36679 5126.7565 905.9974 5127.1779 906.5808 5127.6569 907.11709 5128.193 907.6533 5128.7287 908.1321 5129.312 908.55337 5129.943 908.97476 5130.5729 909.3305 5131.2385 909.6207 5131.939 909.91098 5132.6398 910.13009 5133.3625 910.278 5134.106 910.42599 5134.85 910.49996 5135.6018 910.5 5136.36V5190.2604C910.49996 5191.0187 910.42599 5191.7697 910.278 5192.513 910.13009 5193.257 909.911 5193.9787 909.6208 5194.679 909.33059 5195.38 908.97476 5196.0456 908.55337 5196.6765 908.1321 5197.3068 907.6533 5197.89 907.11709 5198.427 906.5808 5198.963 905.9974 5199.4416 905.3668 5199.863 904.7362 5200.284 904.07058 5200.6398 903.3699 5200.93 902.66928 5201.2209 901.947 5201.44 901.2032 5201.588 900.4594 5201.736 899.7084 5201.8098 898.95 5201.81H810.05C809.29159 5201.8098 808.54049 5201.736 807.79666 5201.588 807.0528 5201.44 806.33059 5201.2209 805.62997 5200.9309 804.9293 5200.64 804.2637 5200.2849 803.63308 5199.8635 803.0025 5199.442 802.4191 5198.963 801.8829 5198.427 801.34658 5197.89 800.8678 5197.3068 800.4465 5196.6765 800.0251 5196.046 799.6693 5195.3806 799.3791 5194.6799 799.08889 5193.979 798.8698 5193.257 798.72189 5192.513 798.5739 5191.7697 798.49996 5191.0187 798.5 5190.2604V5136.36C798.49996 5135.6018 798.5739 5134.85 798.72189 5134.1066 798.8698 5133.3625 799.08889 5132.64 799.3791 5131.9396 799.6693 5131.239 800.0251 5130.573 800.4464 5129.943 800.86776 5129.312 801.34658 5128.7287 801.8829 5128.193 802.4191 5127.6569 803.0025 5127.1779 803.63308 5126.7565 804.2637 5126.335 804.9293 5125.9797 805.62997 5125.689 806.33059 5125.399 807.05288 5125.1799 807.7967 5125.0319 808.54049 5124.884 809.29159 5124.81 810.05 5124.81Z"/>
<text xml:space="preserve" transform="matrix(.65449628 0 0 .65449628 -387.09757 -3269.9686)" font-size="16" font-family="Arial"><tspan y="5150" x="826.09378 836.76577 842.09378 850.98977 858.98977 867.88577 875.88577">Process</tspan></text>
<text xml:space="preserve" transform="matrix(.65449628 0 0 .65449628 -387.09757 -3269.9686)" font-size="16" font-family="Arial"><tspan y="5169" x="825.2031 835.8751 843.8751 852.7711 861.6671 870.5631 879.4591">Pseudo-</tspan></text>
<text xml:space="preserve" transform="matrix(.65449628 0 0 .65449628 -387.09757 -3269.9686)" font-size="16" font-family="Arial"><tspan y="5188" x="814.09378 818.54177 827.43777 835.43777 839.88577 845.21377 854.10977 862.10977 866.55776 870.10977 879.00576 887.90176">Instructions</tspan></text>
<path transform="matrix(.65449628,0,0,.65449628,-386.77027,-3269.641)" d="M935.05 5034.31H1023.95C1024.7084 5034.31 1025.4595 5034.3845 1026.2033 5034.532 1026.947 5034.6799 1027.6692 5034.8986 1028.3699 5035.189 1029.0706 5035.479 1029.7362 5035.835 1030.3667 5036.2565 1030.9973 5036.6779 1031.5808 5037.1564 1032.1171 5037.693 1032.6533 5038.229 1033.1321 5038.812 1033.5534 5039.4426 1033.9746 5040.0729 1034.3305 5040.7385 1034.6207 5041.439 1034.9109 5042.1398 1035.13 5042.862 1035.2781 5043.6057 1035.4259 5044.3498 1035.4999 5045.101 1035.5 5045.86V5099.7604C1035.4999 5100.5187 1035.4259 5101.269 1035.278 5102.0129 1035.13 5102.7565 1034.9109 5103.479 1034.6207 5104.1799 1034.3305 5104.8806 1033.9746 5105.5456 1033.5534 5106.176 1033.132 5106.8068 1032.6532 5107.39 1032.117 5107.927 1031.5807 5108.463 1030.9973 5108.9416 1030.3667 5109.363 1029.7362 5109.784 1029.0706 5110.1398 1028.3699 5110.43 1027.6692 5110.7209 1026.947 5110.94 1026.2033 5111.088 1025.4595 5111.236 1024.7084 5111.3098 1023.95 5111.31H935.05C934.29159 5111.3098 933.5404 5111.2355 932.7966 5111.0876 932.05276 5110.9396 931.3305 5110.7209 930.6299 5110.4309 929.9292 5110.14 929.26358 5109.784 928.633 5109.363 928.00247 5108.9416 927.41909 5108.463 926.8829 5107.927 926.34658 5107.39 925.86776 5106.8068 925.4464 5106.176 925.0251 5105.5456 924.6693 5104.88 924.3791 5104.179 924.08889 5103.4787 923.8698 5102.7565 923.72189 5102.0129 923.5739 5101.269 923.49996 5100.5187 923.5 5099.7604V5045.86C923.49996 5045.101 923.5739 5044.3498 923.72189 5043.606 923.8698 5042.862 924.0889 5042.1398 924.37918 5041.4396 924.6694 5040.739 925.02517 5040.073 925.4465 5039.4426 925.8678 5038.812 926.3466 5038.229 926.88296 5037.693 927.4191 5037.1564 928.0025 5036.6779 928.63308 5036.2565 929.2636 5035.835 929.92929 5035.479 930.62997 5035.189 931.33059 5034.8986 932.05276 5034.6799 932.7966 5034.532 933.5404 5034.3845 934.29159 5034.31 935.05 5034.31Z" fill="#fad7ac"/>
<path transform="matrix(.65449628,0,0,.65449628,-386.77027,-3269.641)" stroke-width="1" stroke-linecap="butt" stroke-miterlimit="4" stroke-linejoin="miter" fill="none" stroke="#b46504" d="M935.05 5034.31H1023.95C1024.7084 5034.31 1025.4595 5034.3845 1026.2033 5034.532 1026.947 5034.6799 1027.6692 5034.8986 1028.3699 5035.189 1029.0706 5035.479 1029.7362 5035.835 1030.3667 5036.2565 1030.9973 5036.6779 1031.5808 5037.1564 1032.1171 5037.693 1032.6533 5038.229 1033.1321 5038.812 1033.5534 5039.4426 1033.9746 5040.0729 1034.3305 5040.7385 1034.6207 5041.439 1034.9109 5042.1398 1035.13 5042.862 1035.2781 5043.6057 1035.4259 5044.3498 1035.4999 5045.101 1035.5 5045.86V5099.7604C1035.4999 5100.5187 1035.4259 5101.269 1035.278 5102.0129 1035.13 5102.7565 1034.9109 5103.479 1034.6207 5104.1799 1034.3305 5104.8806 1033.9746 5105.5456 1033.5534 5106.176 1033.132 5106.8068 1032.6532 5107.39 1032.117 5107.927 1031.5807 5108.463 1030.9973 5108.9416 1030.3667 5109.363 1029.7362 5109.784 1029.0706 5110.1398 1028.3699 5110.43 1027.6692 5110.7209 1026.947 5110.94 1026.2033 5111.088 1025.4595 5111.236 1024.7084 5111.3098 1023.95 5111.31H935.05C934.29159 5111.3098 933.5404 5111.2355 932.7966 5111.0876 932.05276 5110.9396 931.3305 5110.7209 930.6299 5110.4309 929.9292 5110.14 929.26358 5109.784 928.633 5109.363 928.00247 5108.9416 927.41909 5108.463 926.8829 5107.927 926.34658 5107.39 925.86776 5106.8068 925.4464 5106.176 925.0251 5105.5456 924.6693 5104.88 924.3791 5104.179 924.08889 5103.4787 923.8698 5102.7565 923.72189 5102.0129 923.5739 5101.269 923.49996 5100.5187 923.5 5099.7604V5045.86C923.49996 5045.101 923.5739 5044.3498 923.72189 5043.606 923.8698 5042.862 924.0889 5042.1398 924.37918 5041.4396 924.6694 5040.739 925.02517 5040.073 925.4465 5039.4426 925.8678 5038.812 926.3466 5038.229 926.88296 5037.693 927.4191 5037.1564 928.0025 5036.6779 928.63308 5036.2565 929.2636 5035.835 929.92929 5035.479 930.62997 5035.189 931.33059 5034.8986 932.05276 5034.6799 932.7966 5034.532 933.5404 5034.3845 934.29159 5034.31 935.05 5034.31Z"/>
<text xml:space="preserve" transform="matrix(.65449628 0 0 .65449628 -387.09757 -3269.9686)" font-size="16" font-family="Arial"><tspan y="5060" x="946.6406 958.1926 967.0886 970.6406 978.6406 987.5366 991.0886 999.9846 1004.4326">Calculate</tspan></text>
<text xml:space="preserve" transform="matrix(.65449628 0 0 .65449628 -387.09757 -3269.9686)" font-size="16" font-family="Arial"><tspan y="5079" x="943.09378 947.54177 956.43777 964.43777 968.88577 974.21377 983.10977 991.10977 995.55776 999.10977 1008.00576">Instruction</tspan></text>
<text xml:space="preserve" transform="matrix(.65449628 0 0 .65449628 -387.09757 -3269.9686)" font-size="16" font-family="Arial"><tspan y="5098" x="954.7969 967.2449 971.39846 975.84646 983.84646 992.74246 997.1904">Offsets</tspan></text>
<path transform="matrix(.65449628,0,0,.65449628,-386.77027,-3269.641)" d="M935.05 5124.81H1023.95C1024.7084 5124.81 1025.4595 5124.884 1026.2033 5125.0319 1026.947 5125.1799 1027.6692 5125.399 1028.3699 5125.689 1029.0706 5125.9797 1029.7362 5126.335 1030.3667 5126.7565 1030.9973 5127.1779 1031.5808 5127.6569 1032.1171 5128.193 1032.6533 5128.7287 1033.1321 5129.312 1033.5534 5129.943 1033.9746 5130.5729 1034.3305 5131.2385 1034.6207 5131.939 1034.9109 5132.6398 1035.13 5133.3625 1035.2781 5134.106 1035.4259 5134.85 1035.4999 5135.6018 1035.5 5136.36V5190.2604C1035.4999 5191.0187 1035.4259 5191.7697 1035.278 5192.513 1035.13 5193.257 1034.9109 5193.9787 1034.6207 5194.679 1034.3305 5195.38 1033.9746 5196.0456 1033.5534 5196.6765 1033.132 5197.3068 1032.6532 5197.89 1032.117 5198.427 1031.5807 5198.963 1030.9973 5199.4416 1030.3667 5199.863 1029.7362 5200.284 1029.0706 5200.6398 1028.3699 5200.93 1027.6692 5201.2209 1026.947 5201.44 1026.2033 5201.588 1025.4595 5201.736 1024.7084 5201.8098 1023.95 5201.81H935.05C934.29159 5201.8098 933.5404 5201.736 932.7966 5201.588 932.05276 5201.44 931.3305 5201.2209 930.6299 5200.9309 929.9292 5200.64 929.26358 5200.2849 928.633 5199.8635 928.00247 5199.442 927.41909 5198.963 926.8829 5198.427 926.34658 5197.89 925.86776 5197.3068 925.4464 5196.6765 925.0251 5196.046 924.6693 5195.3806 924.3791 5194.6799 924.08889 5193.979 923.8698 5193.257 923.72189 5192.513 923.5739 5191.7697 923.49996 5191.0187 923.5 5190.2604V5136.36C923.49996 5135.6018 923.5739 5134.85 923.72189 5134.1066 923.8698 5133.3625 924.0889 5132.64 924.37918 5131.9396 924.6694 5131.239 925.02517 5130.573 925.4465 5129.943 925.8678 5129.312 926.3466 5128.7287 926.88296 5128.193 927.4191 5127.6569 928.0025 5127.1779 928.63308 5126.7565 929.2636 5126.335 929.92929 5125.9797 930.62997 5125.689 931.33059 5125.399 932.05276 5125.1799 932.7966 5125.0319 933.5404 5124.884 934.29159 5124.81 935.05 5124.81Z" fill="#fad7ac"/>
<path transform="matrix(.65449628,0,0,.65449628,-386.77027,-3269.641)" stroke-width="1" stroke-linecap="butt" stroke-miterlimit="4" stroke-linejoin="miter" fill="none" stroke="#b46504" d="M935.05 5124.81H1023.95C1024.7084 5124.81 1025.4595 5124.884 1026.2033 5125.0319 1026.947 5125.1799 1027.6692 5125.399 1028.3699 5125.689 1029.0706 5125.9797 1029.7362 5126.335 1030.3667 5126.7565 1030.9973 5127.1779 1031.5808 5127.6569 1032.1171 5128.193 1032.6533 5128.7287 1033.1321 5129.312 1033.5534 5129.943 1033.9746 5130.5729 1034.3305 5131.2385 1034.6207 5131.939 1034.9109 5132.6398 1035.13 5133.3625 1035.2781 5134.106 1035.4259 5134.85 1035.4999 5135.6018 1035.5 5136.36V5190.2604C1035.4999 5191.0187 1035.4259 5191.7697 1035.278 5192.513 1035.13 5193.257 1034.9109 5193.9787 1034.6207 5194.679 1034.3305 5195.38 1033.9746 5196.0456 1033.5534 5196.6765 1033.132 5197.3068 1032.6532 5197.89 1032.117 5198.427 1031.5807 5198.963 1030.9973 5199.4416 1030.3667 5199.863 1029.7362 5200.284 1029.0706 5200.6398 1028.3699 5200.93 1027.6692 5201.2209 1026.947 5201.44 1026.2033 5201.588 1025.4595 5201.736 1024.7084 5201.8098 1023.95 5201.81H935.05C934.29159 5201.8098 933.5404 5201.736 932.7966 5201.588 932.05276 5201.44 931.3305 5201.2209 930.6299 5200.9309 929.9292 5200.64 929.26358 5200.2849 928.633 5199.8635 928.00247 5199.442 927.41909 5198.963 926.8829 5198.427 926.34658 5197.89 925.86776 5197.3068 925.4464 5196.6765 925.0251 5196.046 924.6693 5195.3806 924.3791 5194.6799 924.08889 5193.979 923.8698 5193.257 923.72189 5192.513 923.5739 5191.7697 923.49996 5191.0187 923.5 5190.2604V5136.36C923.49996 5135.6018 923.5739 5134.85 923.72189 5134.1066 923.8698 5133.3625 924.0889 5132.64 924.37918 5131.9396 924.6694 5131.239 925.02517 5130.573 925.4465 5129.943 925.8678 5129.312 926.3466 5128.7287 926.88296 5128.193 927.4191 5127.6569 928.0025 5127.1779 928.63308 5126.7565 929.2636 5126.335 929.92929 5125.9797 930.62997 5125.689 931.33059 5125.399 932.05276 5125.1799 932.7966 5125.0319 933.5404 5124.884 934.29159 5124.81 935.05 5124.81Z"/>
<text xml:space="preserve" transform="matrix(.65449628 0 0 .65449628 -387.09757 -3269.9686)" font-size="16" font-family="Arial"><tspan y="5159" x="944.875 955.547 963.547 971.547 980.443 993.771 1002.667 1006.219">Assemble</tspan></text>
<text xml:space="preserve" transform="matrix(.65449628 0 0 .65449628 -387.09757 -3269.9686)" font-size="16" font-family="Arial"><tspan y="5179" x="939.09378 943.54177 952.43777 960.43777 964.88577 970.21377 979.10977 987.10977 991.55776 995.10977 1004.00576 1012.90176">Instructions</tspan></text>
</g>
</svg>
