<svg xmlns="http://www.w3.org/2000/svg" xmlns:xlink="http://www.w3.org/1999/xlink" xmlns:inkscape="http://www.inkscape.org/namespaces/inkscape" version="1.1" width="401.03999" height="229.92" viewBox="0 0 401.03999 229.92">
<defs>
<clipPath id="clip_1">
<path transform="matrix(.24,0,0,.24,0,0)" d="M78.125 43.75H1593.75V915.625H78.125Z" clip-rule="evenodd"/>
</clipPath>
<clipPath id="clip_2">
<path transform="matrix(.24,0,0,.24,0,0)" d="M960.8755 97.295047H1127.2807V227.03711H960.8755Z" clip-rule="evenodd"/>
</clipPath>
<clipPath id="clip_3">
<path transform="matrix(.24,0,0,.24,0,0)" d="M78.125 43.75H1593.75V915.625H78.125Z" clip-rule="evenodd"/>
</clipPath>
</defs>
<g clip-path="url(#clip_1)">
<path transform="matrix(.6502106,0,0,.6502106,-911.92056,-3038.2379)" d="M1636.35 4691H1940.43C1941.988 4691.0007 1943.5422 4691.0769 1945.0928 4691.229 1946.6432 4691.382 1948.1824 4691.61 1949.7103 4691.9138 1951.2384 4692.218 1952.7478 4692.596 1954.2387 4693.0485 1955.7295 4693.5007 1957.1947 4694.0246 1958.634 4694.62 1960.0735 4695.2165 1961.4802 4695.8815 1962.8543 4696.616 1964.2283 4697.3508 1965.563 4698.1506 1966.8583 4699.016 1968.1538 4699.882 1969.4037 4700.809 1970.608 4701.797 1971.8125 4702.7858 1972.9655 4703.831 1974.067 4704.9328 1975.1687 4706.0349 1976.2138 4707.1877 1977.2022 4708.392 1978.1904 4709.596 1979.1173 4710.8459 1979.9828 4712.1408 1980.8484 4713.436 1981.6484 4714.771 1982.3828 4716.145 1983.1173 4717.5187 1983.7826 4718.9255 1984.3788 4720.3649 1984.975 4721.8049 1985.4993 4723.27 1985.9515 4724.7609 1986.4038 4726.252 1986.7819 4727.761 1987.0857 4729.289 1987.3898 4730.8176 1987.6182 4732.357 1987.7709 4733.907 1987.9236 4735.4577 1988 4737.0119 1988 4738.57V4960.5505C1988 4962.1086 1987.9236 4963.662 1987.7709 4965.2126 1987.6182 4966.763 1987.3898 4968.3029 1987.0857 4969.8308 1986.7819 4971.3586 1986.4038 4972.868 1985.9515 4974.359 1985.4993 4975.8498 1984.975 4977.315 1984.3787 4978.7546 1983.7825 4980.194 1983.1172 4981.6008 1982.3828 4982.9748 1981.6483 4984.3488 1980.8483 4985.683 1979.9827 4986.9787 1979.1172 4988.274 1978.1903 4989.524 1977.202 4990.7287 1976.2138 4991.933 1975.1687 4993.086 1974.067 4994.187 1972.9655 4995.2888 1971.8125 4996.3337 1970.6082 4997.322 1969.4037 4998.31 1968.1537 4999.237 1966.8582 5000.102 1965.5629 5000.968 1964.2283 5001.768 1962.8541 5002.5026 1961.4802 5003.2375 1960.0735 5003.9025 1958.634 5004.4987 1957.1947 5005.0949 1955.7296 5005.619 1954.2388 5006.0715 1952.7479 5006.524 1951.2385 5006.902 1949.7105 5007.2058 1948.1825 5007.51 1946.6432 5007.738 1945.0928 5007.8908 1943.5422 5008.0437 1941.988 5008.12 1940.43 5008.12H1636.35C1634.792 5008.12 1633.2378 5008.044 1631.6873 5007.891 1630.1369 5007.7385 1628.5975 5007.51 1627.0695 5007.2058 1625.5415 5006.902 1624.032 5006.524 1622.5411 5006.0715 1621.0503 5005.619 1619.5851 5005.0949 1618.1456 5004.4987 1616.7063 5003.9025 1615.2997 5003.2375 1613.9257 5002.5026 1612.5515 5001.7687 1611.2168 5000.9685 1609.9214 5000.1027 1608.6261 4999.237 1607.3762 4998.31 1606.1719 4997.3225 1604.9674 4996.3337 1603.8145 4995.2888 1602.7128 4994.187 1601.6112 4993.086 1600.5663 4991.933 1599.5779 4990.7287 1598.5895 4989.524 1597.6625 4988.274 1596.7968 4986.978 1595.9312 4985.6828 1595.1312 4984.348 1594.397 4982.974 1593.6626 4981.6008 1592.9973 4980.194 1592.401 4978.7546 1591.8049 4977.315 1591.2808 4975.8498 1590.8285 4974.359 1590.3762 4972.868 1589.9982 4971.3586 1589.6941 4969.8308 1589.3903 4968.3029 1589.1619 4966.763 1589.0092 4965.213 1588.8565 4963.6628 1588.7802 4962.1086 1588.78 4960.5505V4738.57C1588.7802 4737.0119 1588.8565 4735.4577 1589.009 4733.907 1589.1619 4732.357 1589.3901 4730.8176 1589.694 4729.289 1589.998 4727.761 1590.3761 4726.252 1590.8284 4724.7609 1591.2807 4723.27 1591.8049 4721.8049 1592.401 4720.3649 1592.9973 4718.9255 1593.6626 4717.5187 1594.397 4716.145 1595.1314 4714.7717 1595.9313 4713.4367 1596.7969 4712.141 1597.6625 4710.8459 1598.5895 4709.596 1599.5779 4708.392 1600.5663 4707.1877 1601.6112 4706.0349 1602.7129 4704.9328 1603.8146 4703.831 1604.9677 4702.786 1606.172 4701.7976 1607.3764 4700.809 1608.6261 4699.882 1609.9214 4699.016 1611.2168 4698.1506 1612.5515 4697.3508 1613.9257 4696.6169 1615.2997 4695.882 1616.7063 4695.2165 1618.1456 4694.62 1619.5851 4694.0246 1621.0503 4693.5007 1622.5411 4693.048 1624.032 4692.596 1625.5415 4692.218 1627.0695 4691.9138 1628.5975 4691.61 1630.1369 4691.382 1631.6874 4691.229 1633.2378 4691.0769 1634.792 4691.0007 1636.35 4691Z" fill="#b0e3e6"/>
<path transform="matrix(.6502106,0,0,.6502106,-911.92056,-3038.2379)" stroke-width="1" stroke-linecap="butt" stroke-miterlimit="4" stroke-linejoin="miter" fill="none" stroke="#0e8088" d="M1636.35 4691H1940.43C1941.988 4691.0007 1943.5422 4691.0769 1945.0928 4691.229 1946.6432 4691.382 1948.1824 4691.61 1949.7103 4691.9138 1951.2384 4692.218 1952.7478 4692.596 1954.2387 4693.0485 1955.7295 4693.5007 1957.1947 4694.0246 1958.634 4694.62 1960.0735 4695.2165 1961.4802 4695.8815 1962.8543 4696.616 1964.2283 4697.3508 1965.563 4698.1506 1966.8583 4699.016 1968.1538 4699.882 1969.4037 4700.809 1970.608 4701.797 1971.8125 4702.7858 1972.9655 4703.831 1974.067 4704.9328 1975.1687 4706.0349 1976.2138 4707.1877 1977.2022 4708.392 1978.1904 4709.596 1979.1173 4710.8459 1979.9828 4712.1408 1980.8484 4713.436 1981.6484 4714.771 1982.3828 4716.145 1983.1173 4717.5187 1983.7826 4718.9255 1984.3788 4720.3649 1984.975 4721.8049 1985.4993 4723.27 1985.9515 4724.7609 1986.4038 4726.252 1986.7819 4727.761 1987.0857 4729.289 1987.3898 4730.8176 1987.6182 4732.357 1987.7709 4733.907 1987.9236 4735.4577 1988 4737.0119 1988 4738.57V4960.5505C1988 4962.1086 1987.9236 4963.662 1987.7709 4965.2126 1987.6182 4966.763 1987.3898 4968.3029 1987.0857 4969.8308 1986.7819 4971.3586 1986.4038 4972.868 1985.9515 4974.359 1985.4993 4975.8498 1984.975 4977.315 1984.3787 4978.7546 1983.7825 4980.194 1983.1172 4981.6008 1982.3828 4982.9748 1981.6483 4984.3488 1980.8483 4985.683 1979.9827 4986.9787 1979.1172 4988.274 1978.1903 4989.524 1977.202 4990.7287 1976.2138 4991.933 1975.1687 4993.086 1974.067 4994.187 1972.9655 4995.2888 1971.8125 4996.3337 1970.6082 4997.322 1969.4037 4998.31 1968.1537 4999.237 1966.8582 5000.102 1965.5629 5000.968 1964.2283 5001.768 1962.8541 5002.5026 1961.4802 5003.2375 1960.0735 5003.9025 1958.634 5004.4987 1957.1947 5005.0949 1955.7296 5005.619 1954.2388 5006.0715 1952.7479 5006.524 1951.2385 5006.902 1949.7105 5007.2058 1948.1825 5007.51 1946.6432 5007.738 1945.0928 5007.8908 1943.5422 5008.0437 1941.988 5008.12 1940.43 5008.12H1636.35C1634.792 5008.12 1633.2378 5008.044 1631.6873 5007.891 1630.1369 5007.7385 1628.5975 5007.51 1627.0695 5007.2058 1625.5415 5006.902 1624.032 5006.524 1622.5411 5006.0715 1621.0503 5005.619 1619.5851 5005.0949 1618.1456 5004.4987 1616.7063 5003.9025 1615.2997 5003.2375 1613.9257 5002.5026 1612.5515 5001.7687 1611.2168 5000.9685 1609.9214 5000.1027 1608.6261 4999.237 1607.3762 4998.31 1606.1719 4997.3225 1604.9674 4996.3337 1603.8145 4995.2888 1602.7128 4994.187 1601.6112 4993.086 1600.5663 4991.933 1599.5779 4990.7287 1598.5895 4989.524 1597.6625 4988.274 1596.7968 4986.978 1595.9312 4985.6828 1595.1312 4984.348 1594.397 4982.974 1593.6626 4981.6008 1592.9973 4980.194 1592.401 4978.7546 1591.8049 4977.315 1591.2808 4975.8498 1590.8285 4974.359 1590.3762 4972.868 1589.9982 4971.3586 1589.6941 4969.8308 1589.3903 4968.3029 1589.1619 4966.763 1589.0092 4965.213 1588.8565 4963.6628 1588.7802 4962.1086 1588.78 4960.5505V4738.57C1588.7802 4737.0119 1588.8565 4735.4577 1589.009 4733.907 1589.1619 4732.357 1589.3901 4730.8176 1589.694 4729.289 1589.998 4727.761 1590.3761 4726.252 1590.8284 4724.7609 1591.2807 4723.27 1591.8049 4721.8049 1592.401 4720.3649 1592.9973 4718.9255 1593.6626 4717.5187 1594.397 4716.145 1595.1314 4714.7717 1595.9313 4713.4367 1596.7969 4712.141 1597.6625 4710.8459 1598.5895 4709.596 1599.5779 4708.392 1600.5663 4707.1877 1601.6112 4706.0349 1602.7129 4704.9328 1603.8146 4703.831 1604.9677 4702.786 1606.172 4701.7976 1607.3764 4700.809 1608.6261 4699.882 1609.9214 4699.016 1611.2168 4698.1506 1612.5515 4697.3508 1613.9257 4696.6169 1615.2997 4695.882 1616.7063 4695.2165 1618.1456 4694.62 1619.5851 4694.0246 1621.0503 4693.5007 1622.5411 4693.048 1624.032 4692.596 1625.5415 4692.218 1627.0695 4691.9138 1628.5975 4691.61 1630.1369 4691.382 1631.6874 4691.229 1633.2378 4691.0769 1634.792 4691.0007 1636.35 4691Z"/>
</g>
<g clip-path="url(#clip_2)">
<path transform="matrix(.5547071,0,0,-.55256906,223.95197,244.63813)" d="M49.92 387.3C49.92 381.36299 46.194 375.75999 38.979997 374.53L49.139997 362.65 50.153997 363.996 68.434 389.646V400.516H38.864C46.197999 399.285 49.924 393.344 49.924 387.296L49.92 387.3Z" fill="#f6b21a"/>
<path transform="matrix(.5547071,0,0,-.55256906,223.95197,244.63813)" d="M55.11 360.5 68.43 379.1V358.93H54.1L55.11 360.5ZM29.16 379.99H36.267999C41.349 379.99 43.945 383.689 43.945 387.27299 43.945 390.861 41.459 394.55998 36.267999 394.55998H26.563998V359.03999H44.283998L29.043997 377.18998V379.99098L29.16 379.99Z" fill="#2a3172"/>
<path transform="matrix(.5547071,0,0,-.55256906,223.95197,244.63813)" d="M28.82 344H31.074V354.42H28.82Z" fill="#2a3172"/>
<path transform="matrix(.5547071,0,0,-.55256906,223.95197,244.63813)" d="M35.81 348.2C35.0214 348.2 34.234 348.53334 33.556 349.20603 32.9889 349.77043 32.538 350.55204 32.538 351.45 32.538 352.2329 32.8794 353.014 33.556 353.68803 34.1188 354.251 34.906 354.699 35.81 354.699H47.660005V352.457H35.810007C35.584306 352.457 35.358606 352.3478 35.131505 352.2329 34.905805 352.00743 34.905805 351.89823 34.905805 351.5592 34.905805 351.2259 35.021505 351.1111 35.131505 350.887 35.358606 350.6615 35.474306 350.6615 35.810007 350.6615H44.390008C45.178609 350.6615 45.966009 350.3282 46.64401 349.6555 47.21111 349.09669 47.66201 348.30949 47.66201 347.4115 47.66201 346.5193 47.32061 345.8475 46.64401 345.1735 46.081209 344.6105 45.29401 344.16749 44.390008 344.16749H32.54001V346.40449H44.390008C44.615709 346.40449 44.841409 346.5193 45.06711 346.62998 45.29421 346.85408 45.29421 346.96888 45.29421 347.3022 45.29421 347.52629 45.17851 347.7504 45.06711 347.9745 44.841409 348.19999 44.725709 348.19999 44.390008 348.19999L35.81 348.2Z" fill="#2a3172"/>
<path transform="matrix(.5547071,0,0,-.55256906,223.95197,244.63813)" d="M54.09 354.5H63.794V352.258H54.089998C53.301397 352.258 52.508996 351.9233 51.945997 351.4751 51.384595 350.9121 51.158895 350.2381 51.158895 349.3461 51.158895 348.5589 51.494596 347.7761 51.945997 347.2181 52.508897 346.65513 53.185998 346.4296 54.089998 346.4296H63.794V344.1926H54.089998C52.623998 344.1926 51.493997 344.75 50.364 345.7566 49.35 346.7696 48.782999 347.9986 48.782999 349.4556 48.782999 350.91059 49.350099 352.0316 50.364 353.1536 51.384 354.0513 52.508 354.4996 54.089998 354.4996L54.09 354.5Z" fill="#2a3172"/>
<path transform="matrix(.5547071,0,0,-.55256906,223.95197,244.63813)" d="M27.12 344.1 24.073002 348.241C24.865803 348.3559 25.544003 348.58 26.106003 349.25199 26.667403 349.8108 27.120003 350.59199 27.120003 351.49 27.120003 352.2786 26.782803 353.06 26.106003 353.73399 25.544604 354.29148 24.750002 354.74 23.846003 354.74H11.996002V344.31999H14.256002V348.46098H21.249003L24.296002 344.31999 27.12 344.1ZM14.370001 352.279H23.962002C24.189103 352.279 24.414803 352.1641 24.640501 352.0535 24.866202 351.8294 24.866202 351.7145 24.866202 351.3812 24.866202 351.1571 24.750502 350.93299 24.640501 350.7075 24.4148 350.4834 24.2991 350.4834 23.962002 350.4834H14.370002L14.370001 352.279Z" fill="#2a3172"/>
<path transform="matrix(.5547071,0,0,-.55256906,223.95197,244.63813)" d="M75.2 344 69.104999 354.42H71.701L76.556 346.126 81.404 354.42H84L77.906 344H75.2Z" fill="#f6b21a"/>
<path transform="matrix(.5547071,0,0,-.55256906,223.95197,244.63813)" d="M65.27 348.3H69.667V350.318H65.27Z" fill="#f6b21a"/>
</g>
<g clip-path="url(#clip_3)">
<path transform="matrix(.6502106,0,0,.6502106,-911.92056,-3038.2379)" d="M1726.68 4771.99H1810.12C1811.294 4771.99 1812.4567 4772.105 1813.608 4772.334 1814.7595 4772.5627 1815.8776 4772.9016 1816.9622 4773.3508 1818.0468 4773.8 1819.0772 4774.3508 1820.0532 4775.003 1821.0296 4775.655 1821.9328 4776.3967 1822.763 4777.227 1823.5932 4778.0568 1824.3342 4778.96 1824.9865 4779.936 1825.6387 4780.912 1826.1895 4781.943 1826.6388 4783.0275 1827.0881 4784.112 1827.4273 4785.23 1827.6564 4786.382 1827.8855 4787.5339 1828 4788.6965 1828 4789.87V4909.1105C1828 4910.2839 1827.8855 4911.4465 1827.6564 4912.598 1827.4273 4913.749 1827.0881 4914.867 1826.6388 4915.952 1826.1895 4917.0368 1825.6388 4918.067 1824.9866 4919.0437 1824.3344 4920.0197 1823.5933 4920.923 1822.7631 4921.7536 1821.9329 4922.5837 1821.0297 4923.3249 1820.0535 4923.9768 1819.0773 4924.6296 1818.0469 4925.18 1816.9622 4925.629 1815.8776 4926.078 1814.7595 4926.4177 1813.608 4926.6467 1812.4567 4926.8757 1811.294 4926.99 1810.12 4926.99H1726.68C1725.506 4926.99 1724.3432 4926.8757 1723.1917 4926.6467 1722.0402 4926.4177 1720.9221 4926.078 1719.8374 4925.629 1718.7527 4925.18 1717.7223 4924.6296 1716.7462 4923.9768 1715.77 4923.3249 1714.8668 4922.5837 1714.0368 4921.7536 1713.2066 4920.923 1712.4652 4920.0197 1711.813 4919.0437 1711.1608 4918.0676 1710.61 4917.037 1710.1608 4915.9528 1709.7114 4914.8679 1709.3723 4913.7497 1709.1434 4912.598 1708.9144 4911.4465 1708.7999 4910.2839 1708.8 4909.1105V4789.87C1708.7999 4788.6965 1708.9144 4787.5339 1709.1433 4786.382 1709.3723 4785.23 1709.7114 4784.112 1710.1608 4783.0275 1710.6101 4781.943 1711.1609 4780.912 1711.8131 4779.936 1712.4653 4778.96 1713.2067 4778.0568 1714.0369 4777.227 1714.867 4776.3967 1715.7702 4775.655 1716.7463 4775.003 1717.7225 4774.3508 1718.7529 4773.8 1719.8375 4773.3508 1720.9221 4772.9016 1722.0403 4772.5627 1723.1918 4772.334 1724.3433 4772.105 1725.506 4771.99 1726.68 4771.99Z" fill="#fff2cc"/>
<path transform="matrix(.6502106,0,0,.6502106,-911.92056,-3038.2379)" stroke-width="1" stroke-linecap="butt" stroke-miterlimit="4" stroke-linejoin="miter" fill="none" stroke="#d6b656" d="M1726.68 4771.99H1810.12C1811.294 4771.99 1812.4567 4772.105 1813.608 4772.334 1814.7595 4772.5627 1815.8776 4772.9016 1816.9622 4773.3508 1818.0468 4773.8 1819.0772 4774.3508 1820.0532 4775.003 1821.0296 4775.655 1821.9328 4776.3967 1822.763 4777.227 1823.5932 4778.0568 1824.3342 4778.96 1824.9865 4779.936 1825.6387 4780.912 1826.1895 4781.943 1826.6388 4783.0275 1827.0881 4784.112 1827.4273 4785.23 1827.6564 4786.382 1827.8855 4787.5339 1828 4788.6965 1828 4789.87V4909.1105C1828 4910.2839 1827.8855 4911.4465 1827.6564 4912.598 1827.4273 4913.749 1827.0881 4914.867 1826.6388 4915.952 1826.1895 4917.0368 1825.6388 4918.067 1824.9866 4919.0437 1824.3344 4920.0197 1823.5933 4920.923 1822.7631 4921.7536 1821.9329 4922.5837 1821.0297 4923.3249 1820.0535 4923.9768 1819.0773 4924.6296 1818.0469 4925.18 1816.9622 4925.629 1815.8776 4926.078 1814.7595 4926.4177 1813.608 4926.6467 1812.4567 4926.8757 1811.294 4926.99 1810.12 4926.99H1726.68C1725.506 4926.99 1724.3432 4926.8757 1723.1917 4926.6467 1722.0402 4926.4177 1720.9221 4926.078 1719.8374 4925.629 1718.7527 4925.18 1717.7223 4924.6296 1716.7462 4923.9768 1715.77 4923.3249 1714.8668 4922.5837 1714.0368 4921.7536 1713.2066 4920.923 1712.4652 4920.0197 1711.813 4919.0437 1711.1608 4918.0676 1710.61 4917.037 1710.1608 4915.9528 1709.7114 4914.8679 1709.3723 4913.7497 1709.1434 4912.598 1708.9144 4911.4465 1708.7999 4910.2839 1708.8 4909.1105V4789.87C1708.7999 4788.6965 1708.9144 4787.5339 1709.1433 4786.382 1709.3723 4785.23 1709.7114 4784.112 1710.1608 4783.0275 1710.6101 4781.943 1711.1609 4780.912 1711.8131 4779.936 1712.4653 4778.96 1713.2067 4778.0568 1714.0369 4777.227 1714.867 4776.3967 1715.7702 4775.655 1716.7463 4775.003 1717.7225 4774.3508 1718.7529 4773.8 1719.8375 4773.3508 1720.9221 4772.9016 1722.0403 4772.5627 1723.1918 4772.334 1724.3433 4772.105 1725.506 4771.99 1726.68 4771.99Z"/>
<text xml:space="preserve" transform="matrix(.6502106 0 0 .6502106 -912.2456 -3038.5628)" font-size="16" font-family="Arial"><tspan y="4855" x="1723.5938 1735.1458 1744.0418 1752.9378 1756.4898 1764.4898 1768.9378 1777.8338 1783.1618 1787.6098 1797.3858 1800.9378 1804.4898">Register File</tspan></text>
<path transform="matrix(.6502106,0,0,.6502106,-911.92056,-3038.2379)" d="M1853.4501 4855.99H1960.65C1961.3491 4855.99 1962.0416 4856.0588 1962.7274 4856.195 1963.4133 4856.331 1964.0792 4856.533 1964.7254 4856.8005 1965.3715 4857.068 1965.9852 4857.396 1966.5667 4857.7849 1967.1481 4858.173 1967.686 4858.6145 1968.1806 4859.109 1968.675 4859.6037 1969.1165 4860.1418 1969.505 4860.723 1969.8934 4861.304 1970.2214 4861.918 1970.489 4862.564 1970.7567 4863.21 1970.9589 4863.876 1971.0952 4864.562 1971.2318 4865.248 1971.3 4865.941 1971.3 4866.64V4916.3405C1971.3 4917.039 1971.2318 4917.7316 1971.0953 4918.4177 1970.9589 4919.1037 1970.7568 4919.7697 1970.4891 4920.4157 1970.2214 4921.061 1969.8934 4921.675 1969.505 4922.2565 1969.1165 4922.838 1968.675 4923.376 1968.1806 4923.8708 1967.686 4924.365 1967.1481 4924.8068 1966.5665 4925.195 1965.9851 4925.5837 1965.3715 4925.9118 1964.7254 4926.179 1964.0792 4926.447 1963.4133 4926.649 1962.7276 4926.7858 1962.0416 4926.922 1961.3491 4926.99 1960.65 4926.99H1853.4501C1852.7506 4926.99 1852.058 4926.922 1851.3722 4926.7858 1850.6863 4926.649 1850.0203 4926.447 1849.3743 4926.179 1848.7282 4925.9118 1848.1144 4925.5837 1847.533 4925.195 1846.9515 4924.8068 1846.4137 4924.365 1845.9193 4923.8708 1845.4248 4923.376 1844.9833 4922.8376 1844.5947 4922.256 1844.2062 4921.6745 1843.8782 4921.0607 1843.6105 4920.4147 1843.3429 4919.7687 1843.1409 4919.1027 1843.0045 4918.417 1842.868 4917.7316 1842.7999 4917.039 1842.8 4916.3405V4866.64C1842.7999 4865.941 1842.868 4865.248 1843.0045 4864.562 1843.1409 4863.876 1843.3429 4863.21 1843.6106 4862.564 1843.8782 4861.918 1844.2063 4861.304 1844.5949 4860.723 1844.9833 4860.1418 1845.4248 4859.6037 1845.9193 4859.109 1846.4137 4858.6145 1846.9517 4858.173 1847.5331 4857.7849 1848.1145 4857.396 1848.7282 4857.068 1849.3743 4856.8005 1850.0203 4856.533 1850.6863 4856.331 1851.3722 4856.195 1852.058 4856.0588 1852.7506 4855.99 1853.4501 4855.99Z" fill="#fad9d5"/>
<path transform="matrix(.6502106,0,0,.6502106,-911.92056,-3038.2379)" stroke-width="1" stroke-linecap="butt" stroke-miterlimit="4" stroke-linejoin="miter" fill="none" stroke="#ae4132" d="M1853.4501 4855.99H1960.65C1961.3491 4855.99 1962.0416 4856.0588 1962.7274 4856.195 1963.4133 4856.331 1964.0792 4856.533 1964.7254 4856.8005 1965.3715 4857.068 1965.9852 4857.396 1966.5667 4857.7849 1967.1481 4858.173 1967.686 4858.6145 1968.1806 4859.109 1968.675 4859.6037 1969.1165 4860.1418 1969.505 4860.723 1969.8934 4861.304 1970.2214 4861.918 1970.489 4862.564 1970.7567 4863.21 1970.9589 4863.876 1971.0952 4864.562 1971.2318 4865.248 1971.3 4865.941 1971.3 4866.64V4916.3405C1971.3 4917.039 1971.2318 4917.7316 1971.0953 4918.4177 1970.9589 4919.1037 1970.7568 4919.7697 1970.4891 4920.4157 1970.2214 4921.061 1969.8934 4921.675 1969.505 4922.2565 1969.1165 4922.838 1968.675 4923.376 1968.1806 4923.8708 1967.686 4924.365 1967.1481 4924.8068 1966.5665 4925.195 1965.9851 4925.5837 1965.3715 4925.9118 1964.7254 4926.179 1964.0792 4926.447 1963.4133 4926.649 1962.7276 4926.7858 1962.0416 4926.922 1961.3491 4926.99 1960.65 4926.99H1853.4501C1852.7506 4926.99 1852.058 4926.922 1851.3722 4926.7858 1850.6863 4926.649 1850.0203 4926.447 1849.3743 4926.179 1848.7282 4925.9118 1848.1144 4925.5837 1847.533 4925.195 1846.9515 4924.8068 1846.4137 4924.365 1845.9193 4923.8708 1845.4248 4923.376 1844.9833 4922.8376 1844.5947 4922.256 1844.2062 4921.6745 1843.8782 4921.0607 1843.6105 4920.4147 1843.3429 4919.7687 1843.1409 4919.1027 1843.0045 4918.417 1842.868 4917.7316 1842.7999 4917.039 1842.8 4916.3405V4866.64C1842.7999 4865.941 1842.868 4865.248 1843.0045 4864.562 1843.1409 4863.876 1843.3429 4863.21 1843.6106 4862.564 1843.8782 4861.918 1844.2063 4861.304 1844.5949 4860.723 1844.9833 4860.1418 1845.4248 4859.6037 1845.9193 4859.109 1846.4137 4858.6145 1846.9517 4858.173 1847.5331 4857.7849 1848.1145 4857.396 1848.7282 4857.068 1849.3743 4856.8005 1850.0203 4856.533 1850.6863 4856.331 1851.3722 4856.195 1852.058 4856.0588 1852.7506 4855.99 1853.4501 4855.99Z"/>
<text xml:space="preserve" transform="matrix(.6502106 0 0 .6502106 -912.2456 -3038.5628)" font-size="16" font-family="Arial"><tspan y="4897" x="1891.9375 1902.6095 1911.5055">ALU</tspan></text>
<path transform="matrix(.6502106,0,0,.6502106,-911.92056,-3038.2379)" d="M1613.25 4939.99H1885.53C1886.2553 4939.99 1886.953 4940.129 1887.623 4940.4064 1888.2932 4940.684 1888.8848 4941.079 1889.3977 4941.5925 1889.9105 4942.1047 1890.3058 4942.6965 1890.5834 4943.3669 1890.861 4944.037 1890.9999 4944.735 1891 4945.4606V4971.02C1890.9999 4971.745 1890.861 4972.4426 1890.5834 4973.1125 1890.3058 4973.782 1889.9105 4974.374 1889.3977 4974.8879 1888.8848 4975.4006 1888.2932 4975.796 1887.623 4976.0739 1886.953 4976.351 1886.2553 4976.4899 1885.53 4976.49H1613.25C1612.5245 4976.4899 1611.8268 4976.351 1611.1565 4976.0739 1610.4863 4975.796 1609.8949 4975.4006 1609.3821 4974.8879 1608.8692 4974.374 1608.4739 4973.782 1608.1962 4973.1125 1607.9187 4972.4426 1607.78 4971.745 1607.78 4971.02V4945.4606C1607.78 4944.735 1607.9187 4944.037 1608.1962 4943.3669 1608.4739 4942.6965 1608.8692 4942.1047 1609.3821 4941.5925 1609.8949 4941.079 1610.4863 4940.684 1611.1565 4940.4064 1611.8268 4940.129 1612.5245 4939.99 1613.25 4939.99Z" fill="#fff2cc"/>
<path transform="matrix(.6502106,0,0,.6502106,-911.92056,-3038.2379)" stroke-width="1" stroke-linecap="butt" stroke-miterlimit="4" stroke-linejoin="miter" fill="none" stroke="#d6b656" d="M1613.25 4939.99H1885.53C1886.2553 4939.99 1886.953 4940.129 1887.623 4940.4064 1888.2932 4940.684 1888.8848 4941.079 1889.3977 4941.5925 1889.9105 4942.1047 1890.3058 4942.6965 1890.5834 4943.3669 1890.861 4944.037 1890.9999 4944.735 1891 4945.4606V4971.02C1890.9999 4971.745 1890.861 4972.4426 1890.5834 4973.1125 1890.3058 4973.782 1889.9105 4974.374 1889.3977 4974.8879 1888.8848 4975.4006 1888.2932 4975.796 1887.623 4976.0739 1886.953 4976.351 1886.2553 4976.4899 1885.53 4976.49H1613.25C1612.5245 4976.4899 1611.8268 4976.351 1611.1565 4976.0739 1610.4863 4975.796 1609.8949 4975.4006 1609.3821 4974.8879 1608.8692 4974.374 1608.4739 4973.782 1608.1962 4973.1125 1607.9187 4972.4426 1607.78 4971.745 1607.78 4971.02V4945.4606C1607.78 4944.735 1607.9187 4944.037 1608.1962 4943.3669 1608.4739 4942.6965 1608.8692 4942.1047 1609.3821 4941.5925 1609.8949 4941.079 1610.4863 4940.684 1611.1565 4940.4064 1611.8268 4940.129 1612.5245 4939.99 1613.25 4939.99Z"/>
<text xml:space="preserve" transform="matrix(.6502106 0 0 .6502106 -912.2456 -3038.5628)" font-size="16" font-family="Arial"><tspan y="4964" x="1720.6094 1733.9374 1742.8334 1756.1614 1765.0574 1770.3854">Memory</tspan></text>
<path transform="matrix(.6502106,0,0,.6502106,-911.92056,-3038.2379)" d="M1853.4501 4771.99H1960.65C1961.3491 4771.99 1962.0416 4772.0588 1962.7274 4772.195 1963.4133 4772.331 1964.0792 4772.5329 1964.7254 4772.8005 1965.3715 4773.068 1965.9852 4773.396 1966.5667 4773.7849 1967.1481 4774.1735 1967.686 4774.6149 1968.1806 4775.1096 1968.675 4775.604 1969.1165 4776.1418 1969.505 4776.7229 1969.8934 4777.304 1970.2214 4777.9187 1970.489 4778.5646 1970.7567 4779.2106 1970.9589 4779.8767 1971.0952 4780.5627 1971.2318 4781.248 1971.3 4781.9406 1971.3 4782.64V4832.3405C1971.3 4833.0397 1971.2318 4833.732 1971.0953 4834.4177 1970.9589 4835.103 1970.7568 4835.769 1970.4891 4836.4157 1970.2214 4837.0617 1969.8934 4837.6755 1969.505 4838.257 1969.1165 4838.8386 1968.675 4839.376 1968.1806 4839.8708 1967.686 4840.365 1967.1481 4840.8068 1966.5665 4841.1955 1965.9851 4841.5837 1965.3715 4841.9118 1964.7254 4842.179 1964.0792 4842.447 1963.4133 4842.649 1962.7276 4842.785 1962.0416 4842.922 1961.3491 4842.99 1960.65 4842.99H1853.4501C1852.7506 4842.99 1852.058 4842.922 1851.3722 4842.785 1850.6863 4842.649 1850.0203 4842.447 1849.3743 4842.179 1848.7282 4841.9118 1848.1144 4841.5837 1847.533 4841.1955 1846.9515 4840.8068 1846.4137 4840.365 1845.9193 4839.8708 1845.4248 4839.376 1844.9833 4838.838 1844.5947 4838.2565 1844.2062 4837.6755 1843.8782 4837.0617 1843.6105 4836.415 1843.3429 4835.769 1843.1409 4835.103 1843.0045 4834.4177 1842.868 4833.732 1842.7999 4833.0397 1842.8 4832.3405V4782.64C1842.7999 4781.9406 1842.868 4781.248 1843.0045 4780.5627 1843.1409 4779.8767 1843.3429 4779.2106 1843.6106 4778.5646 1843.8782 4777.9187 1844.2063 4777.304 1844.5949 4776.7229 1844.9833 4776.1418 1845.4248 4775.604 1845.9193 4775.1096 1846.4137 4774.6149 1846.9517 4774.1735 1847.5331 4773.7849 1848.1145 4773.396 1848.7282 4773.068 1849.3743 4772.8005 1850.0203 4772.5329 1850.6863 4772.331 1851.3722 4772.195 1852.058 4772.0588 1852.7506 4771.99 1853.4501 4771.99Z" fill="#fad9d5"/>
<path transform="matrix(.6502106,0,0,.6502106,-911.92056,-3038.2379)" stroke-width="1" stroke-linecap="butt" stroke-miterlimit="4" stroke-linejoin="miter" fill="none" stroke="#ae4132" d="M1853.4501 4771.99H1960.65C1961.3491 4771.99 1962.0416 4772.0588 1962.7274 4772.195 1963.4133 4772.331 1964.0792 4772.5329 1964.7254 4772.8005 1965.3715 4773.068 1965.9852 4773.396 1966.5667 4773.7849 1967.1481 4774.1735 1967.686 4774.6149 1968.1806 4775.1096 1968.675 4775.604 1969.1165 4776.1418 1969.505 4776.7229 1969.8934 4777.304 1970.2214 4777.9187 1970.489 4778.5646 1970.7567 4779.2106 1970.9589 4779.8767 1971.0952 4780.5627 1971.2318 4781.248 1971.3 4781.9406 1971.3 4782.64V4832.3405C1971.3 4833.0397 1971.2318 4833.732 1971.0953 4834.4177 1970.9589 4835.103 1970.7568 4835.769 1970.4891 4836.4157 1970.2214 4837.0617 1969.8934 4837.6755 1969.505 4838.257 1969.1165 4838.8386 1968.675 4839.376 1968.1806 4839.8708 1967.686 4840.365 1967.1481 4840.8068 1966.5665 4841.1955 1965.9851 4841.5837 1965.3715 4841.9118 1964.7254 4842.179 1964.0792 4842.447 1963.4133 4842.649 1962.7276 4842.785 1962.0416 4842.922 1961.3491 4842.99 1960.65 4842.99H1853.4501C1852.7506 4842.99 1852.058 4842.922 1851.3722 4842.785 1850.6863 4842.649 1850.0203 4842.447 1849.3743 4842.179 1848.7282 4841.9118 1848.1144 4841.5837 1847.533 4841.1955 1846.9515 4840.8068 1846.4137 4840.365 1845.9193 4839.8708 1845.4248 4839.376 1844.9833 4838.838 1844.5947 4838.2565 1844.2062 4837.6755 1843.8782 4837.0617 1843.6105 4836.415 1843.3429 4835.769 1843.1409 4835.103 1843.0045 4834.4177 1842.868 4833.732 1842.7999 4833.0397 1842.8 4832.3405V4782.64C1842.7999 4781.9406 1842.868 4781.248 1843.0045 4780.5627 1843.1409 4779.8767 1843.3429 4779.2106 1843.6106 4778.5646 1843.8782 4777.9187 1844.2063 4777.304 1844.5949 4776.7229 1844.9833 4776.1418 1845.4248 4775.604 1845.9193 4775.1096 1846.4137 4774.6149 1846.9517 4774.1735 1847.5331 4773.7849 1848.1145 4773.396 1848.7282 4773.068 1849.3743 4772.8005 1850.0203 4772.5329 1850.6863 4772.331 1851.3722 4772.195 1852.058 4772.0588 1852.7506 4771.99 1853.4501 4771.99Z"/>
<text xml:space="preserve" transform="matrix(.6502106 0 0 .6502106 -912.2456 -3038.5628)" font-size="16" font-family="Arial"><tspan y="4803" x="1870.1406 1874.5886 1887.9166 1901.2446 1910.1406 1919.0366 1922.5886 1931.4846 1935.9326">Immediate</tspan></text>
<text xml:space="preserve" transform="matrix(.6502106 0 0 .6502106 -912.2456 -3038.5628)" font-size="16" font-family="Arial"><tspan y="4823" x="1871.4688 1883.9168 1892.8128 1901.7088 1910.6047 1915.9328 1924.8287 1929.2767 1938.1727">Generator</tspan></text>
<path transform="matrix(.6502106,0,0,.6502106,-911.92056,-3038.2379)" d="M1619.7001 4771.99H1679.9C1680.7471 4771.99 1681.5859 4772.0729 1682.4166 4772.2385 1683.2473 4772.4035 1684.0538 4772.648 1684.8364 4772.9719 1685.619 4773.296 1686.3624 4773.6936 1687.0667 4774.164 1687.771 4774.635 1688.4226 4775.1696 1689.0216 4775.7687 1689.6205 4776.367 1690.1553 4777.0187 1690.6259 4777.723 1691.0964 4778.4274 1691.4938 4779.1706 1691.8179 4779.953 1692.1421 4780.736 1692.3867 4781.5427 1692.5519 4782.373 1692.7173 4783.204 1692.7999 4784.043 1692.8 4784.89V4914.0905C1692.7999 4914.9377 1692.7173 4915.776 1692.552 4916.6066 1692.3869 4917.437 1692.1421 4918.2438 1691.8179 4919.026 1691.4938 4919.8088 1691.0963 4920.552 1690.6257 4921.2565 1690.1552 4921.961 1689.6205 4922.6125 1689.0216 4923.2116 1688.4226 4923.81 1687.771 4924.3449 1687.0667 4924.8156 1686.3624 4925.286 1685.619 4925.6838 1684.8364 4926.0075 1684.0538 4926.3317 1683.2473 4926.5769 1682.4166 4926.742 1681.5859 4926.9079 1680.7471 4926.99 1679.9 4926.99H1619.7001C1618.853 4926.99 1618.014 4926.9079 1617.1834 4926.742 1616.3527 4926.5769 1615.5459 4926.3317 1614.7633 4926.0075 1613.9807 4925.6838 1613.2373 4925.286 1612.5331 4924.8156 1611.8289 4924.3449 1611.1773 4923.81 1610.5783 4923.2116 1609.9793 4922.6125 1609.4445 4921.961 1608.9739 4921.2565 1608.5033 4920.552 1608.1058 4919.8088 1607.7817 4919.026 1607.4577 4918.2438 1607.213 4917.437 1607.0476 4916.6066 1606.8825 4915.776 1606.7999 4914.9377 1606.8 4914.0905V4784.89C1606.7999 4784.043 1606.8826 4783.204 1607.0477 4782.373 1607.213 4781.5427 1607.4577 4780.736 1607.7817 4779.953 1608.1058 4779.1706 1608.5033 4778.4274 1608.9739 4777.723 1609.4445 4777.0187 1609.9793 4776.367 1610.5783 4775.7687 1611.1773 4775.1696 1611.8289 4774.635 1612.5331 4774.164 1613.2373 4773.6936 1613.9807 4773.296 1614.7633 4772.9719 1615.5459 4772.648 1616.3527 4772.4035 1617.1834 4772.2385 1618.014 4772.0729 1618.853 4771.99 1619.7001 4771.99Z" fill="#fad9d5"/>
<path transform="matrix(.6502106,0,0,.6502106,-911.92056,-3038.2379)" stroke-width="1" stroke-linecap="butt" stroke-miterlimit="4" stroke-linejoin="miter" fill="none" stroke="#ae4132" d="M1619.7001 4771.99H1679.9C1680.7471 4771.99 1681.5859 4772.0729 1682.4166 4772.2385 1683.2473 4772.4035 1684.0538 4772.648 1684.8364 4772.9719 1685.619 4773.296 1686.3624 4773.6936 1687.0667 4774.164 1687.771 4774.635 1688.4226 4775.1696 1689.0216 4775.7687 1689.6205 4776.367 1690.1553 4777.0187 1690.6259 4777.723 1691.0964 4778.4274 1691.4938 4779.1706 1691.8179 4779.953 1692.1421 4780.736 1692.3867 4781.5427 1692.5519 4782.373 1692.7173 4783.204 1692.7999 4784.043 1692.8 4784.89V4914.0905C1692.7999 4914.9377 1692.7173 4915.776 1692.552 4916.6066 1692.3869 4917.437 1692.1421 4918.2438 1691.8179 4919.026 1691.4938 4919.8088 1691.0963 4920.552 1690.6257 4921.2565 1690.1552 4921.961 1689.6205 4922.6125 1689.0216 4923.2116 1688.4226 4923.81 1687.771 4924.3449 1687.0667 4924.8156 1686.3624 4925.286 1685.619 4925.6838 1684.8364 4926.0075 1684.0538 4926.3317 1683.2473 4926.5769 1682.4166 4926.742 1681.5859 4926.9079 1680.7471 4926.99 1679.9 4926.99H1619.7001C1618.853 4926.99 1618.014 4926.9079 1617.1834 4926.742 1616.3527 4926.5769 1615.5459 4926.3317 1614.7633 4926.0075 1613.9807 4925.6838 1613.2373 4925.286 1612.5331 4924.8156 1611.8289 4924.3449 1611.1773 4923.81 1610.5783 4923.2116 1609.9793 4922.6125 1609.4445 4921.961 1608.9739 4921.2565 1608.5033 4920.552 1608.1058 4919.8088 1607.7817 4919.026 1607.4577 4918.2438 1607.213 4917.437 1607.0476 4916.6066 1606.8825 4915.776 1606.7999 4914.9377 1606.8 4914.0905V4784.89C1606.7999 4784.043 1606.8826 4783.204 1607.0477 4782.373 1607.213 4781.5427 1607.4577 4780.736 1607.7817 4779.953 1608.1058 4779.1706 1608.5033 4778.4274 1608.9739 4777.723 1609.4445 4777.0187 1609.9793 4776.367 1610.5783 4775.7687 1611.1773 4775.1696 1611.8289 4774.635 1612.5331 4774.164 1613.2373 4773.6936 1613.9807 4773.296 1614.7633 4772.9719 1615.5459 4772.648 1616.3527 4772.4035 1617.1834 4772.2385 1618.014 4772.0729 1618.853 4771.99 1619.7001 4771.99Z"/>
<text xml:space="preserve" transform="matrix(.6502106 0 0 .6502106 -912.2456 -3038.5628)" font-size="16" font-family="Arial"><tspan y="4855" x="1624.2031 1635.7551 1644.6511 1653.5471 1657.9951 1663.3231 1672.2191">Control</tspan></text>
<path transform="matrix(.6502106,0,0,.6502106,-911.92056,-3038.2379)" d="M1909.68 4938.99H1965.67C1966.4165 4938.99 1967.1345 4939.133 1967.8242 4939.4187 1968.514 4939.704 1969.1229 4940.1115 1969.651 4940.639 1970.1788 4941.167 1970.5856 4941.776 1970.8712 4942.4655 1971.157 4943.1555 1971.2999 4943.8737 1971.3 4944.62V4970.8605C1971.2999 4971.6066 1971.157 4972.324 1970.8712 4973.0139 1970.5855 4973.7038 1970.1787 4974.3127 1969.6509 4974.841 1969.1229 4975.3688 1968.514 4975.776 1967.8242 4976.0617 1967.1345 4976.347 1966.4165 4976.4899 1965.67 4976.49H1909.68C1908.9334 4976.4899 1908.2152 4976.347 1907.5255 4976.0617 1906.8357 4975.776 1906.2268 4975.369 1905.699 4974.8415 1905.171 4974.313 1904.7642 4973.7038 1904.4784 4973.0139 1904.1926 4972.324 1904.0499 4971.6066 1904.05 4970.8605V4944.62C1904.0499 4943.8737 1904.1926 4943.1555 1904.4783 4942.4655 1904.764 4941.7756 1905.1709 4941.1667 1905.6989 4940.6389 1906.2268 4940.111 1906.8356 4939.704 1907.5254 4939.4187 1908.2152 4939.133 1908.9334 4938.99 1909.68 4938.99Z" fill="#fff2cc"/>
<path transform="matrix(.6502106,0,0,.6502106,-911.92056,-3038.2379)" stroke-width="1" stroke-linecap="butt" stroke-miterlimit="4" stroke-linejoin="miter" fill="none" stroke="#d6b656" d="M1909.68 4938.99H1965.67C1966.4165 4938.99 1967.1345 4939.133 1967.8242 4939.4187 1968.514 4939.704 1969.1229 4940.1115 1969.651 4940.639 1970.1788 4941.167 1970.5856 4941.776 1970.8712 4942.4655 1971.157 4943.1555 1971.2999 4943.8737 1971.3 4944.62V4970.8605C1971.2999 4971.6066 1971.157 4972.324 1970.8712 4973.0139 1970.5855 4973.7038 1970.1787 4974.3127 1969.6509 4974.841 1969.1229 4975.3688 1968.514 4975.776 1967.8242 4976.0617 1967.1345 4976.347 1966.4165 4976.4899 1965.67 4976.49H1909.68C1908.9334 4976.4899 1908.2152 4976.347 1907.5255 4976.0617 1906.8357 4975.776 1906.2268 4975.369 1905.699 4974.8415 1905.171 4974.313 1904.7642 4973.7038 1904.4784 4973.0139 1904.1926 4972.324 1904.0499 4971.6066 1904.05 4970.8605V4944.62C1904.0499 4943.8737 1904.1926 4943.1555 1904.4783 4942.4655 1904.764 4941.7756 1905.1709 4941.1667 1905.6989 4940.6389 1906.2268 4940.111 1906.8356 4939.704 1907.5254 4939.4187 1908.2152 4939.133 1908.9334 4938.99 1909.68 4938.99Z"/>
<text xml:space="preserve" transform="matrix(.6502106 0 0 .6502106 -912.2456 -3038.5628)" font-size="16" font-family="Arial"><tspan y="4964" x="1926.375 1937.047">PC</tspan></text>
<path transform="matrix(.6502106,0,0,.6502106,-911.92056,-3038.2379)" d="M1515.28 4854.32V4844.32H1551.51V4832.28L1576.28 4849.32 1551.51 4866.36V4854.32H1515.28Z" fill="#f5f5f5"/>
<path transform="matrix(.6502106,0,0,.6502106,-911.92056,-3038.2379)" stroke-width="1" stroke-linecap="butt" stroke-miterlimit="10" stroke-linejoin="miter" fill="none" stroke="#666666" d="M1515.28 4854.32V4844.32H1551.51V4832.28L1576.28 4849.32 1551.51 4866.36V4854.32H1515.28Z"/>
<path transform="matrix(.6502106,0,0,.6502106,-911.92056,-3038.2379)" d="M1513.24 4858.73 1513.32 4839.4 1549.32 4839.55 1549.4 4820.49 1580.28 4849.35 1549.16 4877.94 1549.24 4858.88 1513.24 4858.73Z" fill="#f5f5f5"/>
<path transform="matrix(.6502106,0,0,.6502106,-911.92056,-3038.2379)" stroke-width="1" stroke-linecap="butt" stroke-miterlimit="10" stroke-linejoin="miter" fill="none" stroke="#666666" d="M1513.24 4858.73 1513.32 4839.4 1549.32 4839.55 1549.4 4820.49 1580.28 4849.35 1549.16 4877.94 1549.24 4858.88 1513.24 4858.73Z"/>
<text xml:space="preserve" transform="matrix(.6502106 0 0 .6502106 -912.2456 -3038.5628)" font-size="16" font-family="Arial"><tspan y="4870" x="1445.8125 1456.4845 1460.0365 1468.9325 1477.8285 1483.1565">Binary</tspan></text>
<text xml:space="preserve" transform="matrix(.6502106 0 0 .6502106 -912.2456 -3038.5628)" font-size="16" font-family="Arial"><tspan y="4890" x="1449.3594 1460.9114 1469.8074 1478.7034">Code</tspan></text>
<text xml:space="preserve" transform="matrix(.6502106 0 0 .6502106 -912.2456 -3038.5628)" font-size="8" font-family="Arial" font-weight="bold"><tspan y="4833" x="1457.875 1462.323 1466.771 1471.219 1475.667">00101</tspan></text>
<text xml:space="preserve" transform="matrix(.6502106 0 0 .6502106 -912.2456 -3038.5628)" font-size="8" font-family="Arial" font-weight="bold"><tspan y="4840" x="1457.875 1462.323 1466.771 1471.219 1475.667">00010</tspan></text>
<text xml:space="preserve" transform="matrix(.6502106 0 0 .6502106 -912.2456 -3038.5628)" font-size="8" font-family="Arial" font-weight="bold"><tspan y="4847" x="1458.0938 1462.1016 1466.5496 1470.9976 1475.4456">11010</tspan></text>
<path transform="matrix(.6502106,0,0,.6502106,-911.92056,-3038.2379)" d="M1454.5 4852.58 1454.51 4812.57H1472.5V4821.57C1472.5 4821.84 1472.61 4822.09 1472.8 4822.28 1472.98 4822.47 1473.24 4822.57 1473.5 4822.57H1482.5V4852.58H1454.5ZM1474.5 4813.98 1481.09 4820.57H1474.5V4813.98ZM1484.21 4820.87 1474.21 4810.86C1474.02 4810.68 1473.77 4810.57 1473.5 4810.57H1454.5C1453.32 4810.57 1452.5 4811.39 1452.5 4812.57V4852.58C1452.5 4853.72 1453.36 4854.58 1454.5 4854.58H1482.5C1483.65 4854.58 1484.51 4853.72 1484.51 4852.58V4821.57C1484.51 4821.31 1484.4 4821.05 1484.21 4820.87Z" fill="#232f3d"/>
</g>
</svg>
