<?xml version="1.0" encoding="UTF-8"?>
<svg version="1.1" xmlns="http://www.w3.org/2000/svg" width="32" height="32">
<path d="M0 0 C10.56 0 21.12 0 32 0 C32 10.56 32 21.12 32 32 C21.44 32 10.88 32 0 32 C0 21.44 0 10.88 0 0 Z " fill="#34495E" transform="translate(0,0)"/>
<path d="M0 0 C3.3721049 1.44518781 5.69880363 3.12350453 8 6 C8.25 8.75 8.25 8.75 8 11 C6.02 11.99 6.02 11.99 4 13 C4 13.66 4 14.32 4 15 C3.34 15 2.68 15 2 15 C2 15.66 2 16.32 2 17 C1.34 17 0.68 17 0 17 C0 16.34 0 15.68 0 15 C-0.66 15 -1.32 15 -2 15 C-2 14.34 -2 13.68 -2 13 C-3.32 12.34 -4.64 11.68 -6 11 C-6 9.68 -6 8.36 -6 7 C-5.34 7 -4.68 7 -4 7 C-4 6.01 -4 5.02 -4 4 C-3.34 4 -2.68 4 -2 4 C-2 3.34 -2 2.68 -2 2 C-1.34 2 -0.68 2 0 2 C0 1.34 0 0.68 0 0 Z " fill="#5D8FB2" transform="translate(15,4)"/>
<path d="M0 0 C3.3721049 1.44518781 5.69880363 3.12350453 8 6 C8.25 8.75 8.25 8.75 8 11 C6.02 10.34 4.04 9.68 2 9 C2 8.34 2 7.68 2 7 C3.32 7.33 4.64 7.66 6 8 C6 7.34 6 6.68 6 6 C2.7 6 -0.6 6 -4 6 C-4 5.34 -4 4.68 -4 4 C-3.34 4 -2.68 4 -2 4 C-2 3.34 -2 2.68 -2 2 C-1.34 2 -0.68 2 0 2 C0 1.34 0 0.68 0 0 Z " fill="#4089BC" transform="translate(15,4)"/>
<path d="M0 0 C5.28 0 10.56 0 16 0 C15.01 0.33 14.02 0.66 13 1 C13 1.66 13 2.32 13 3 C13.99 3.33 14.98 3.66 16 4 C13.89646505 4.0810206 11.79204048 4.13919907 9.6875 4.1875 C8.51574219 4.22230469 7.34398437 4.25710937 6.13671875 4.29296875 C3 4 3 4 1.08203125 2.55078125 C0 1 0 1 0 0 Z " fill="#7A8896" transform="translate(8,23)"/>
<path d="M0 0 C1.65 0 3.3 0 5 0 C4.01 0.33 3.02 0.66 2 1 C2 1.66 2 2.32 2 3 C2.99 3.33 3.98 3.66 5 4 C2.03 4 -0.94 4 -4 4 C-4 3.01 -4 2.02 -4 1 C-2.68 1.33 -1.36 1.66 0 2 C0 1.34 0 0.68 0 0 Z " fill="#8795A1" transform="translate(19,23)"/>
</svg>
