<svg xmlns="http://www.w3.org/2000/svg" xmlns:xlink="http://www.w3.org/1999/xlink" xmlns:inkscape="http://www.inkscape.org/namespaces/inkscape" version="1.1" width="444" height="136.08" viewBox="0 0 444 136.08">
<defs>
<clipPath id="clip_1">
<path transform="matrix(.24,0,0,.24,0,0)" d="M78.125 21.875H1771.875V543.75H78.125Z" clip-rule="evenodd"/>
</clipPath>
</defs>
<g clip-path="url(#clip_1)">
<path transform="matrix(.6574934,0,0,.6574934,-945.35629,-3307.7667)" d="M1645.65 5041H1903.1C1904.0138 5041.0007 1904.9253 5041.0456 1905.8346 5041.135 1906.7439 5041.224 1907.6467 5041.3576 1908.5429 5041.5358 1909.4391 5041.714 1910.3244 5041.936 1911.1987 5042.201 1912.0733 5042.4665 1912.9325 5042.774 1913.7766 5043.123 1914.621 5043.473 1915.446 5043.8635 1916.2518 5044.294 1917.0578 5044.7248 1917.8406 5045.194 1918.6002 5045.701 1919.3601 5046.209 1920.0932 5046.753 1920.7996 5047.3327 1921.5059 5047.9128 1922.182 5048.5256 1922.8281 5049.1716 1923.4744 5049.8176 1924.0873 5050.4938 1924.667 5051.1999 1925.2467 5051.9064 1925.7903 5052.6398 1926.2979 5053.399 1926.8056 5054.159 1927.2748 5054.942 1927.7056 5055.7478 1928.1364 5056.553 1928.5265 5057.378 1928.8761 5058.222 1929.2258 5059.0666 1929.5335 5059.9265 1929.7987 5060.801 1930.064 5061.6755 1930.2858 5062.5607 1930.4639 5063.4567 1930.6422 5064.3527 1930.7763 5065.256 1930.8657 5066.1657 1930.9553 5067.0749 1931.0001 5067.9865 1931 5068.9V5199.1C1931.0001 5200.014 1930.9553 5200.926 1930.8657 5201.835 1930.7763 5202.7448 1930.6422 5203.647 1930.4639 5204.543 1930.2858 5205.4396 1930.064 5206.3249 1929.7987 5207.199 1929.5335 5208.073 1929.2258 5208.932 1928.8761 5209.7766 1928.5265 5210.6208 1928.1364 5211.446 1927.7056 5212.252 1927.2748 5213.058 1926.8056 5213.841 1926.2979 5214.6008 1925.7903 5215.361 1925.2467 5216.0939 1924.667 5216.8 1924.0873 5217.5065 1923.4744 5218.182 1922.8283 5218.828 1922.1823 5219.474 1921.506 5220.0876 1920.7996 5220.667 1920.0933 5221.2468 1919.3602 5221.79 1918.6004 5222.2976 1917.8407 5222.805 1917.0579 5223.2746 1916.2521 5223.705 1915.4462 5224.1359 1914.6211 5224.526 1913.7767 5224.8757 1912.9326 5225.2258 1912.0733 5225.5329 1911.1989 5225.798 1910.3245 5226.0637 1909.4391 5226.285 1908.543 5226.4636 1907.6467 5226.642 1906.7439 5226.7766 1905.8346 5226.866 1904.9253 5226.9558 1904.0138 5227 1903.1 5227H1645.65C1644.7363 5227 1643.8248 5226.9558 1642.9154 5226.866 1642.006 5226.7766 1641.1032 5226.642 1640.2068 5226.4636 1639.3107 5226.285 1638.4254 5226.0637 1637.5509 5225.798 1636.6765 5225.5329 1635.8173 5225.2258 1634.9729 5224.8757 1634.1288 5224.526 1633.3037 5224.1359 1632.4979 5223.705 1631.692 5223.2746 1630.9092 5222.805 1630.1494 5222.2976 1629.3897 5221.7897 1628.6566 5221.246 1627.9503 5220.6667 1627.244 5220.087 1626.5678 5219.474 1625.9216 5218.8278 1625.2755 5218.1818 1624.6627 5217.506 1624.083 5216.7995 1623.5033 5216.093 1622.9595 5215.36 1622.4518 5214.5998 1621.9442 5213.8405 1621.4751 5213.0578 1621.0443 5212.2517 1620.6137 5211.4455 1620.2234 5210.62 1619.8735 5209.776 1619.5239 5208.932 1619.2164 5208.073 1618.9512 5207.199 1618.6859 5206.3249 1618.4642 5205.439 1618.2859 5204.5427 1618.1077 5203.6467 1617.9738 5202.744 1617.8843 5201.835 1617.7948 5200.926 1617.75 5200.014 1617.75 5199.1V5068.9C1617.75 5067.9865 1617.7948 5067.0749 1617.8843 5066.1657 1617.9738 5065.256 1618.1077 5064.3527 1618.2858 5063.456 1618.4641 5062.56 1618.6859 5061.675 1618.9512 5060.8005 1619.2164 5059.926 1619.5239 5059.066 1619.8735 5058.2219 1620.2234 5057.378 1620.6137 5056.553 1621.0443 5055.747 1621.4751 5054.941 1621.9442 5054.158 1622.4519 5053.3986 1622.9596 5052.639 1623.5034 5051.9064 1624.0831 5051.1999 1624.6627 5050.493 1625.2755 5049.817 1625.9216 5049.171 1626.5678 5048.525 1627.244 5047.912 1627.9503 5047.332 1628.6566 5046.7526 1629.3897 5046.209 1630.1494 5045.701 1630.9092 5045.1936 1631.692 5044.724 1632.4979 5044.2937 1633.3037 5043.863 1634.1288 5043.4729 1634.9729 5043.123 1635.8173 5042.774 1636.6766 5042.4665 1637.551 5042.201 1638.4254 5041.936 1639.3108 5041.714 1640.2069 5041.5358 1641.1033 5041.3576 1642.0061 5041.224 1642.9154 5041.135 1643.8248 5041.0456 1644.7363 5041.0007 1645.65 5041Z" fill="#b1ddf0"/>
<path transform="matrix(.6574934,0,0,.6574934,-945.35629,-3307.7667)" stroke-width="1" stroke-linecap="butt" stroke-miterlimit="4" stroke-linejoin="miter" fill="none" stroke="#10739e" d="M1645.65 5041H1903.1C1904.0138 5041.0007 1904.9253 5041.0456 1905.8346 5041.135 1906.7439 5041.224 1907.6467 5041.3576 1908.5429 5041.5358 1909.4391 5041.714 1910.3244 5041.936 1911.1987 5042.201 1912.0733 5042.4665 1912.9325 5042.774 1913.7766 5043.123 1914.621 5043.473 1915.446 5043.8635 1916.2518 5044.294 1917.0578 5044.7248 1917.8406 5045.194 1918.6002 5045.701 1919.3601 5046.209 1920.0932 5046.753 1920.7996 5047.3327 1921.5059 5047.9128 1922.182 5048.5256 1922.8281 5049.1716 1923.4744 5049.8176 1924.0873 5050.4938 1924.667 5051.1999 1925.2467 5051.9064 1925.7903 5052.6398 1926.2979 5053.399 1926.8056 5054.159 1927.2748 5054.942 1927.7056 5055.7478 1928.1364 5056.553 1928.5265 5057.378 1928.8761 5058.222 1929.2258 5059.0666 1929.5335 5059.9265 1929.7987 5060.801 1930.064 5061.6755 1930.2858 5062.5607 1930.4639 5063.4567 1930.6422 5064.3527 1930.7763 5065.256 1930.8657 5066.1657 1930.9553 5067.0749 1931.0001 5067.9865 1931 5068.9V5199.1C1931.0001 5200.014 1930.9553 5200.926 1930.8657 5201.835 1930.7763 5202.7448 1930.6422 5203.647 1930.4639 5204.543 1930.2858 5205.4396 1930.064 5206.3249 1929.7987 5207.199 1929.5335 5208.073 1929.2258 5208.932 1928.8761 5209.7766 1928.5265 5210.6208 1928.1364 5211.446 1927.7056 5212.252 1927.2748 5213.058 1926.8056 5213.841 1926.2979 5214.6008 1925.7903 5215.361 1925.2467 5216.0939 1924.667 5216.8 1924.0873 5217.5065 1923.4744 5218.182 1922.8283 5218.828 1922.1823 5219.474 1921.506 5220.0876 1920.7996 5220.667 1920.0933 5221.2468 1919.3602 5221.79 1918.6004 5222.2976 1917.8407 5222.805 1917.0579 5223.2746 1916.2521 5223.705 1915.4462 5224.1359 1914.6211 5224.526 1913.7767 5224.8757 1912.9326 5225.2258 1912.0733 5225.5329 1911.1989 5225.798 1910.3245 5226.0637 1909.4391 5226.285 1908.543 5226.4636 1907.6467 5226.642 1906.7439 5226.7766 1905.8346 5226.866 1904.9253 5226.9558 1904.0138 5227 1903.1 5227H1645.65C1644.7363 5227 1643.8248 5226.9558 1642.9154 5226.866 1642.006 5226.7766 1641.1032 5226.642 1640.2068 5226.4636 1639.3107 5226.285 1638.4254 5226.0637 1637.5509 5225.798 1636.6765 5225.5329 1635.8173 5225.2258 1634.9729 5224.8757 1634.1288 5224.526 1633.3037 5224.1359 1632.4979 5223.705 1631.692 5223.2746 1630.9092 5222.805 1630.1494 5222.2976 1629.3897 5221.7897 1628.6566 5221.246 1627.9503 5220.6667 1627.244 5220.087 1626.5678 5219.474 1625.9216 5218.8278 1625.2755 5218.1818 1624.6627 5217.506 1624.083 5216.7995 1623.5033 5216.093 1622.9595 5215.36 1622.4518 5214.5998 1621.9442 5213.8405 1621.4751 5213.0578 1621.0443 5212.2517 1620.6137 5211.4455 1620.2234 5210.62 1619.8735 5209.776 1619.5239 5208.932 1619.2164 5208.073 1618.9512 5207.199 1618.6859 5206.3249 1618.4642 5205.439 1618.2859 5204.5427 1618.1077 5203.6467 1617.9738 5202.744 1617.8843 5201.835 1617.7948 5200.926 1617.75 5200.014 1617.75 5199.1V5068.9C1617.75 5067.9865 1617.7948 5067.0749 1617.8843 5066.1657 1617.9738 5065.256 1618.1077 5064.3527 1618.2858 5063.456 1618.4641 5062.56 1618.6859 5061.675 1618.9512 5060.8005 1619.2164 5059.926 1619.5239 5059.066 1619.8735 5058.2219 1620.2234 5057.378 1620.6137 5056.553 1621.0443 5055.747 1621.4751 5054.941 1621.9442 5054.158 1622.4519 5053.3986 1622.9596 5052.639 1623.5034 5051.9064 1624.0831 5051.1999 1624.6627 5050.493 1625.2755 5049.817 1625.9216 5049.171 1626.5678 5048.525 1627.244 5047.912 1627.9503 5047.332 1628.6566 5046.7526 1629.3897 5046.209 1630.1494 5045.701 1630.9092 5045.1936 1631.692 5044.724 1632.4979 5044.2937 1633.3037 5043.863 1634.1288 5043.4729 1634.9729 5043.123 1635.8173 5042.774 1636.6766 5042.4665 1637.551 5042.201 1638.4254 5041.936 1639.3108 5041.714 1640.2069 5041.5358 1641.1033 5041.3576 1642.0061 5041.224 1642.9154 5041.135 1643.8248 5041.0456 1644.7363 5041.0007 1645.65 5041Z"/>
<path transform="matrix(.6574934,0,0,.6574934,-945.35629,-3307.7667)" d="M1816.47 5055.5H1851.0701C1851.5429 5055.5 1852.011 5055.5466 1852.4746 5055.6389 1852.9382 5055.731 1853.3884 5055.867 1853.8252 5056.048 1854.2619 5056.2287 1854.6768 5056.45 1855.0698 5056.713 1855.463 5056.9758 1855.8267 5057.2746 1856.161 5057.609 1856.4953 5057.943 1856.7937 5058.306 1857.0564 5058.699 1857.3191 5059.0925 1857.5409 5059.5075 1857.7218 5059.9445 1857.9027 5060.3815 1858.0393 5060.8317 1858.1316 5061.2956 1858.2239 5061.759 1858.27 5062.227 1858.27 5062.7V5096.3C1858.27 5096.7727 1858.2239 5097.2409 1858.1315 5097.704 1858.0393 5098.1677 1857.9027 5098.6179 1857.7218 5099.0549 1857.5409 5099.4919 1857.3191 5099.9069 1857.0565 5100.3 1856.794 5100.693 1856.4955 5101.056 1856.1611 5101.3908 1855.8268 5101.725 1855.463 5102.0236 1855.0698 5102.286 1854.6768 5102.549 1854.2619 5102.7707 1853.8252 5102.9519 1853.3884 5103.1325 1852.9382 5103.269 1852.4746 5103.3615 1852.011 5103.4538 1851.5429 5103.5 1851.0701 5103.5H1816.47C1815.9972 5103.5 1815.5289 5103.4538 1815.0652 5103.3615 1814.6015 5103.269 1814.1511 5103.1325 1813.7144 5102.9519 1813.2776 5102.7707 1812.8627 5102.549 1812.4696 5102.286 1812.0765 5102.0236 1811.7129 5101.725 1811.3787 5101.3908 1811.0443 5101.056 1810.7459 5100.693 1810.4832 5100.3 1810.2206 5099.9069 1809.9988 5099.4919 1809.8179 5099.0549 1809.637 5098.6179 1809.5004 5098.1677 1809.4081 5097.704 1809.316 5097.2409 1809.27 5096.7727 1809.27 5096.3V5062.7C1809.27 5062.227 1809.316 5061.759 1809.4081 5061.295 1809.5004 5060.8317 1809.637 5060.381 1809.8179 5059.944 1809.9987 5059.5075 1810.2205 5059.0925 1810.4832 5058.699 1810.7457 5058.306 1811.0442 5057.943 1811.3786 5057.609 1811.7128 5057.2746 1812.0764 5056.9758 1812.4695 5056.7136 1812.8626 5056.45 1813.2775 5056.2287 1813.7144 5056.048 1814.1511 5055.867 1814.6015 5055.731 1815.0652 5055.6389 1815.5289 5055.5466 1815.9972 5055.5 1816.47 5055.5Z" fill="#fff2cc"/>
<path transform="matrix(.6574934,0,0,.6574934,-945.35629,-3307.7667)" stroke-width="1" stroke-linecap="butt" stroke-miterlimit="4" stroke-linejoin="miter" fill="none" stroke="#d6b656" d="M1816.47 5055.5H1851.0701C1851.5429 5055.5 1852.011 5055.5466 1852.4746 5055.6389 1852.9382 5055.731 1853.3884 5055.867 1853.8252 5056.048 1854.2619 5056.2287 1854.6768 5056.45 1855.0698 5056.713 1855.463 5056.9758 1855.8267 5057.2746 1856.161 5057.609 1856.4953 5057.943 1856.7937 5058.306 1857.0564 5058.699 1857.3191 5059.0925 1857.5409 5059.5075 1857.7218 5059.9445 1857.9027 5060.3815 1858.0393 5060.8317 1858.1316 5061.2956 1858.2239 5061.759 1858.27 5062.227 1858.27 5062.7V5096.3C1858.27 5096.7727 1858.2239 5097.2409 1858.1315 5097.704 1858.0393 5098.1677 1857.9027 5098.6179 1857.7218 5099.0549 1857.5409 5099.4919 1857.3191 5099.9069 1857.0565 5100.3 1856.794 5100.693 1856.4955 5101.056 1856.1611 5101.3908 1855.8268 5101.725 1855.463 5102.0236 1855.0698 5102.286 1854.6768 5102.549 1854.2619 5102.7707 1853.8252 5102.9519 1853.3884 5103.1325 1852.9382 5103.269 1852.4746 5103.3615 1852.011 5103.4538 1851.5429 5103.5 1851.0701 5103.5H1816.47C1815.9972 5103.5 1815.5289 5103.4538 1815.0652 5103.3615 1814.6015 5103.269 1814.1511 5103.1325 1813.7144 5102.9519 1813.2776 5102.7707 1812.8627 5102.549 1812.4696 5102.286 1812.0765 5102.0236 1811.7129 5101.725 1811.3787 5101.3908 1811.0443 5101.056 1810.7459 5100.693 1810.4832 5100.3 1810.2206 5099.9069 1809.9988 5099.4919 1809.8179 5099.0549 1809.637 5098.6179 1809.5004 5098.1677 1809.4081 5097.704 1809.316 5097.2409 1809.27 5096.7727 1809.27 5096.3V5062.7C1809.27 5062.227 1809.316 5061.759 1809.4081 5061.295 1809.5004 5060.8317 1809.637 5060.381 1809.8179 5059.944 1809.9987 5059.5075 1810.2205 5059.0925 1810.4832 5058.699 1810.7457 5058.306 1811.0442 5057.943 1811.3786 5057.609 1811.7128 5057.2746 1812.0764 5056.9758 1812.4695 5056.7136 1812.8626 5056.45 1813.2775 5056.2287 1813.7144 5056.048 1814.1511 5055.867 1814.6015 5055.731 1815.0652 5055.6389 1815.5289 5055.5466 1815.9972 5055.5 1816.47 5055.5Z"/>
<text xml:space="preserve" transform="matrix(.6574934 0 0 .6574934 -945.68508 -3308.0955)" font-size="12" font-family="Arial"><tspan y="5084" x="1829.1563">R</tspan></text>
<path transform="matrix(.6574934,0,0,.6574934,-945.35629,-3307.7667)" d="M1539.96 5144.83 1540.04 5125.5 1576.04 5125.65 1576.12 5106.59 1607 5135.45 1575.88 5164.04 1575.96 5144.98 1539.96 5144.83Z" fill="#f5f5f5"/>
<path transform="matrix(.6574934,0,0,.6574934,-945.35629,-3307.7667)" stroke-width="1" stroke-linecap="butt" stroke-miterlimit="10" stroke-linejoin="miter" fill="none" stroke="#666666" d="M1539.96 5144.83 1540.04 5125.5 1576.04 5125.65 1576.12 5106.59 1607 5135.45 1575.88 5164.04 1575.96 5144.98 1539.96 5144.83Z"/>
<path transform="matrix(.6574934,0,0,.6574934,-945.35629,-3307.7667)" d="M1644.8 5091.49H1707.45C1708.2083 5091.49 1708.9592 5091.564 1709.703 5091.712 1710.4468 5091.86 1711.1691 5092.0788 1711.8699 5092.369 1712.5704 5092.659 1713.2361 5093.015 1713.8666 5093.4367 1714.4971 5093.858 1715.0806 5094.3366 1715.617 5094.8728 1716.1532 5095.4089 1716.632 5095.992 1717.0534 5096.6228 1717.4746 5097.2536 1717.8305 5097.919 1718.1206 5098.6198 1718.4108 5099.3205 1718.63 5100.0427 1718.7781 5100.786 1718.9259 5101.5305 1718.9999 5102.2819 1719 5103.04V5156.9406C1718.9999 5157.6989 1718.9259 5158.449 1718.778 5159.193 1718.63 5159.937 1718.4109 5160.6599 1718.1207 5161.3605 1717.8306 5162.061 1717.4747 5162.726 1717.0535 5163.3566 1716.6321 5163.9875 1716.1533 5164.571 1715.6171 5165.107 1715.0808 5165.643 1714.4973 5166.1218 1713.8668 5166.543 1713.2362 5166.9645 1712.5706 5167.32 1711.8699 5167.6105 1711.1691 5167.901 1710.4468 5168.1198 1709.703 5168.2678 1708.9592 5168.4157 1708.2083 5168.4899 1707.45 5168.49H1644.8C1644.0416 5168.4899 1643.2904 5168.4157 1642.5466 5168.2678 1641.8029 5168.1198 1641.0806 5167.901 1640.3799 5167.6105 1639.6792 5167.32 1639.0136 5166.9645 1638.3829 5166.543 1637.7525 5166.1218 1637.1691 5165.643 1636.6328 5165.107 1636.0966 5164.571 1635.6177 5163.9875 1635.1963 5163.357 1634.775 5162.7268 1634.4193 5162.061 1634.129 5161.3605 1633.8389 5160.6599 1633.6198 5159.937 1633.4718 5159.193 1633.3239 5158.449 1633.2499 5157.6989 1633.25 5156.9406V5103.04C1633.2499 5102.2819 1633.3239 5101.5305 1633.4718 5100.7868 1633.6198 5100.043 1633.8389 5099.3205 1634.129 5098.6198 1634.4193 5097.919 1634.775 5097.2536 1635.1963 5096.6228 1635.6177 5095.992 1636.0966 5095.4089 1636.6328 5094.8728 1637.1691 5094.3366 1637.7525 5093.858 1638.3829 5093.4367 1639.0136 5093.015 1639.6792 5092.659 1640.3799 5092.369 1641.0806 5092.0788 1641.8029 5091.86 1642.5466 5091.712 1643.2904 5091.564 1644.0416 5091.49 1644.8 5091.49Z" fill="#fad9d5"/>
<path transform="matrix(.6574934,0,0,.6574934,-945.35629,-3307.7667)" stroke-width="1" stroke-linecap="butt" stroke-miterlimit="4" stroke-linejoin="miter" fill="none" stroke="#ae4132" d="M1644.8 5091.49H1707.45C1708.2083 5091.49 1708.9592 5091.564 1709.703 5091.712 1710.4468 5091.86 1711.1691 5092.0788 1711.8699 5092.369 1712.5704 5092.659 1713.2361 5093.015 1713.8666 5093.4367 1714.4971 5093.858 1715.0806 5094.3366 1715.617 5094.8728 1716.1532 5095.4089 1716.632 5095.992 1717.0534 5096.6228 1717.4746 5097.2536 1717.8305 5097.919 1718.1206 5098.6198 1718.4108 5099.3205 1718.63 5100.0427 1718.7781 5100.786 1718.9259 5101.5305 1718.9999 5102.2819 1719 5103.04V5156.9406C1718.9999 5157.6989 1718.9259 5158.449 1718.778 5159.193 1718.63 5159.937 1718.4109 5160.6599 1718.1207 5161.3605 1717.8306 5162.061 1717.4747 5162.726 1717.0535 5163.3566 1716.6321 5163.9875 1716.1533 5164.571 1715.6171 5165.107 1715.0808 5165.643 1714.4973 5166.1218 1713.8668 5166.543 1713.2362 5166.9645 1712.5706 5167.32 1711.8699 5167.6105 1711.1691 5167.901 1710.4468 5168.1198 1709.703 5168.2678 1708.9592 5168.4157 1708.2083 5168.4899 1707.45 5168.49H1644.8C1644.0416 5168.4899 1643.2904 5168.4157 1642.5466 5168.2678 1641.8029 5168.1198 1641.0806 5167.901 1640.3799 5167.6105 1639.6792 5167.32 1639.0136 5166.9645 1638.3829 5166.543 1637.7525 5166.1218 1637.1691 5165.643 1636.6328 5165.107 1636.0966 5164.571 1635.6177 5163.9875 1635.1963 5163.357 1634.775 5162.7268 1634.4193 5162.061 1634.129 5161.3605 1633.8389 5160.6599 1633.6198 5159.937 1633.4718 5159.193 1633.3239 5158.449 1633.2499 5157.6989 1633.25 5156.9406V5103.04C1633.2499 5102.2819 1633.3239 5101.5305 1633.4718 5100.7868 1633.6198 5100.043 1633.8389 5099.3205 1634.129 5098.6198 1634.4193 5097.919 1634.775 5097.2536 1635.1963 5096.6228 1635.6177 5095.992 1636.0966 5095.4089 1636.6328 5094.8728 1637.1691 5094.3366 1637.7525 5093.858 1638.3829 5093.4367 1639.0136 5093.015 1639.6792 5092.659 1640.3799 5092.369 1641.0806 5092.0788 1641.8029 5091.86 1642.5466 5091.712 1643.2904 5091.564 1644.0416 5091.49 1644.8 5091.49Z"/>
<text xml:space="preserve" transform="matrix(.6574934 0 0 .6574934 -945.68508 -3308.0955)" font-size="16" font-family="Arial"><tspan y="5126" x="1658.6563 1667.5469 1675.5469 1684.4429">Type</tspan></text>
<text xml:space="preserve" transform="matrix(.6574934 0 0 .6574934 -945.68508 -3308.0955)" font-size="16" font-family="Arial"><tspan y="5146" x="1646.6406 1657.3126 1666.2086 1669.7606 1678.6566 1686.6566 1691.1046 1700.0006">Selector</tspan></text>
<path transform="matrix(.6574934,0,0,.6574934,-945.35629,-3307.7667)" d="M1731.46 5144.17 1731.54 5124.84 1767.54 5124.99 1767.62 5105.93 1798.5 5134.79 1767.38 5163.38 1767.46 5144.32 1731.46 5144.17Z" fill="#f5f5f5"/>
<path transform="matrix(.6574934,0,0,.6574934,-945.35629,-3307.7667)" stroke-width="1" stroke-linecap="butt" stroke-miterlimit="10" stroke-linejoin="miter" fill="none" stroke="#666666" d="M1731.46 5144.17 1731.54 5124.84 1767.54 5124.99 1767.62 5105.93 1798.5 5134.79 1767.38 5163.38 1767.46 5144.32 1731.46 5144.17Z"/>
<path transform="matrix(.6574934,0,0,.6574934,-945.35629,-3307.7667)" d="M1816.47 5111.5H1851.0701C1851.5429 5111.5 1852.011 5111.5466 1852.4746 5111.6389 1852.9382 5111.7307 1853.3884 5111.8669 1853.8252 5112.048 1854.2619 5112.2287 1854.6768 5112.45 1855.0698 5112.7136 1855.463 5112.976 1855.8267 5113.2746 1856.161 5113.609 1856.4953 5113.943 1856.7937 5114.306 1857.0564 5114.699 1857.3191 5115.0925 1857.5409 5115.5075 1857.7218 5115.944 1857.9027 5116.381 1858.0393 5116.831 1858.1316 5117.2956 1858.2239 5117.759 1858.27 5118.227 1858.27 5118.7V5152.3C1858.27 5152.7727 1858.2239 5153.24 1858.1315 5153.7038 1858.0393 5154.1677 1857.9027 5154.6179 1857.7218 5155.0549 1857.5409 5155.491 1857.3191 5155.906 1857.0565 5156.299 1856.794 5156.692 1856.4955 5157.056 1856.1611 5157.3908 1855.8268 5157.7248 1855.463 5158.023 1855.0698 5158.286 1854.6768 5158.5485 1854.2619 5158.77 1853.8252 5158.951 1853.3884 5159.1325 1852.9382 5159.2687 1852.4746 5159.361 1852.011 5159.453 1851.5429 5159.4997 1851.0701 5159.5H1816.47C1815.9972 5159.4997 1815.5289 5159.453 1815.0652 5159.361 1814.6015 5159.2687 1814.1511 5159.1325 1813.7144 5158.951 1813.2776 5158.77 1812.8627 5158.5485 1812.4696 5158.286 1812.0765 5158.023 1811.7129 5157.7248 1811.3787 5157.3908 1811.0443 5157.056 1810.7459 5156.692 1810.4832 5156.299 1810.2206 5155.906 1809.9988 5155.491 1809.8179 5155.0549 1809.637 5154.6179 1809.5004 5154.1677 1809.4081 5153.7038 1809.316 5153.24 1809.27 5152.7727 1809.27 5152.3V5118.7C1809.27 5118.227 1809.316 5117.759 1809.4081 5117.295 1809.5004 5116.831 1809.637 5116.381 1809.8179 5115.944 1809.9987 5115.5075 1810.2205 5115.093 1810.4832 5114.6999 1810.7457 5114.3068 1811.0442 5113.943 1811.3786 5113.609 1811.7128 5113.2746 1812.0764 5112.976 1812.4695 5112.7136 1812.8626 5112.45 1813.2775 5112.2287 1813.7144 5112.048 1814.1511 5111.8669 1814.6015 5111.7307 1815.0652 5111.6389 1815.5289 5111.5466 1815.9972 5111.5 1816.47 5111.5Z" fill="#fff2cc"/>
<path transform="matrix(.6574934,0,0,.6574934,-945.35629,-3307.7667)" stroke-width="1" stroke-linecap="butt" stroke-miterlimit="4" stroke-linejoin="miter" fill="none" stroke="#d6b656" d="M1816.47 5111.5H1851.0701C1851.5429 5111.5 1852.011 5111.5466 1852.4746 5111.6389 1852.9382 5111.7307 1853.3884 5111.8669 1853.8252 5112.048 1854.2619 5112.2287 1854.6768 5112.45 1855.0698 5112.7136 1855.463 5112.976 1855.8267 5113.2746 1856.161 5113.609 1856.4953 5113.943 1856.7937 5114.306 1857.0564 5114.699 1857.3191 5115.0925 1857.5409 5115.5075 1857.7218 5115.944 1857.9027 5116.381 1858.0393 5116.831 1858.1316 5117.2956 1858.2239 5117.759 1858.27 5118.227 1858.27 5118.7V5152.3C1858.27 5152.7727 1858.2239 5153.24 1858.1315 5153.7038 1858.0393 5154.1677 1857.9027 5154.6179 1857.7218 5155.0549 1857.5409 5155.491 1857.3191 5155.906 1857.0565 5156.299 1856.794 5156.692 1856.4955 5157.056 1856.1611 5157.3908 1855.8268 5157.7248 1855.463 5158.023 1855.0698 5158.286 1854.6768 5158.5485 1854.2619 5158.77 1853.8252 5158.951 1853.3884 5159.1325 1852.9382 5159.2687 1852.4746 5159.361 1852.011 5159.453 1851.5429 5159.4997 1851.0701 5159.5H1816.47C1815.9972 5159.4997 1815.5289 5159.453 1815.0652 5159.361 1814.6015 5159.2687 1814.1511 5159.1325 1813.7144 5158.951 1813.2776 5158.77 1812.8627 5158.5485 1812.4696 5158.286 1812.0765 5158.023 1811.7129 5157.7248 1811.3787 5157.3908 1811.0443 5157.056 1810.7459 5156.692 1810.4832 5156.299 1810.2206 5155.906 1809.9988 5155.491 1809.8179 5155.0549 1809.637 5154.6179 1809.5004 5154.1677 1809.4081 5153.7038 1809.316 5153.24 1809.27 5152.7727 1809.27 5152.3V5118.7C1809.27 5118.227 1809.316 5117.759 1809.4081 5117.295 1809.5004 5116.831 1809.637 5116.381 1809.8179 5115.944 1809.9987 5115.5075 1810.2205 5115.093 1810.4832 5114.6999 1810.7457 5114.3068 1811.0442 5113.943 1811.3786 5113.609 1811.7128 5113.2746 1812.0764 5112.976 1812.4695 5112.7136 1812.8626 5112.45 1813.2775 5112.2287 1813.7144 5112.048 1814.1511 5111.8669 1814.6015 5111.7307 1815.0652 5111.6389 1815.5289 5111.5466 1815.9972 5111.5 1816.47 5111.5Z"/>
<text xml:space="preserve" transform="matrix(.6574934 0 0 .6574934 -945.68508 -3308.0955)" font-size="12" font-family="Arial"><tspan y="5140" x="1831.8281">I</tspan></text>
<path transform="matrix(.6574934,0,0,.6574934,-945.35629,-3307.7667)" d="M1816.47 5169.5H1851.0701C1851.5429 5169.5 1852.011 5169.546 1852.4746 5169.638 1852.9382 5169.7307 1853.3884 5169.8669 1853.8252 5170.048 1854.2619 5170.228 1854.6768 5170.4499 1855.0698 5170.713 1855.463 5170.975 1855.8267 5171.274 1856.161 5171.6086 1856.4953 5171.943 1856.7937 5172.306 1857.0564 5172.699 1857.3191 5173.0925 1857.5409 5173.5075 1857.7218 5173.9445 1857.9027 5174.3815 1858.0393 5174.8317 1858.1316 5175.295 1858.2239 5175.7595 1858.27 5176.2277 1858.27 5176.7V5210.3C1858.27 5210.7727 1858.2239 5211.2409 1858.1315 5211.704 1858.0393 5212.1677 1857.9027 5212.6179 1857.7218 5213.054 1857.5409 5213.4909 1857.3191 5213.906 1857.0565 5214.2995 1856.794 5214.6926 1856.4955 5215.056 1856.1611 5215.3908 1855.8268 5215.725 1855.463 5216.0236 1855.0698 5216.286 1854.6768 5216.549 1854.2619 5216.7707 1853.8252 5216.9519 1853.3884 5217.133 1852.9382 5217.269 1852.4746 5217.3615 1852.011 5217.4538 1851.5429 5217.5 1851.0701 5217.5H1816.47C1815.9972 5217.5 1815.5289 5217.4538 1815.0652 5217.3615 1814.6015 5217.269 1814.1511 5217.133 1813.7144 5216.9519 1813.2776 5216.7707 1812.8627 5216.549 1812.4696 5216.286 1812.0765 5216.0236 1811.7129 5215.725 1811.3787 5215.3908 1811.0443 5215.056 1810.7459 5214.6926 1810.4832 5214.2995 1810.2206 5213.906 1809.9988 5213.4909 1809.8179 5213.054 1809.637 5212.6179 1809.5004 5212.168 1809.4081 5211.7048 1809.316 5211.2409 1809.27 5210.7727 1809.27 5210.3V5176.7C1809.27 5176.2277 1809.316 5175.7595 1809.4081 5175.295 1809.5004 5174.8317 1809.637 5174.3815 1809.8179 5173.9445 1809.9987 5173.5075 1810.2205 5173.0925 1810.4832 5172.699 1810.7457 5172.306 1811.0442 5171.943 1811.3786 5171.6086 1811.7128 5171.274 1812.0764 5170.975 1812.4695 5170.713 1812.8626 5170.4499 1813.2775 5170.228 1813.7144 5170.048 1814.1511 5169.8669 1814.6015 5169.7307 1815.0652 5169.638 1815.5289 5169.546 1815.9972 5169.5 1816.47 5169.5Z" fill="#fff2cc"/>
<path transform="matrix(.6574934,0,0,.6574934,-945.35629,-3307.7667)" stroke-width="1" stroke-linecap="butt" stroke-miterlimit="4" stroke-linejoin="miter" fill="none" stroke="#d6b656" d="M1816.47 5169.5H1851.0701C1851.5429 5169.5 1852.011 5169.546 1852.4746 5169.638 1852.9382 5169.7307 1853.3884 5169.8669 1853.8252 5170.048 1854.2619 5170.228 1854.6768 5170.4499 1855.0698 5170.713 1855.463 5170.975 1855.8267 5171.274 1856.161 5171.6086 1856.4953 5171.943 1856.7937 5172.306 1857.0564 5172.699 1857.3191 5173.0925 1857.5409 5173.5075 1857.7218 5173.9445 1857.9027 5174.3815 1858.0393 5174.8317 1858.1316 5175.295 1858.2239 5175.7595 1858.27 5176.2277 1858.27 5176.7V5210.3C1858.27 5210.7727 1858.2239 5211.2409 1858.1315 5211.704 1858.0393 5212.1677 1857.9027 5212.6179 1857.7218 5213.054 1857.5409 5213.4909 1857.3191 5213.906 1857.0565 5214.2995 1856.794 5214.6926 1856.4955 5215.056 1856.1611 5215.3908 1855.8268 5215.725 1855.463 5216.0236 1855.0698 5216.286 1854.6768 5216.549 1854.2619 5216.7707 1853.8252 5216.9519 1853.3884 5217.133 1852.9382 5217.269 1852.4746 5217.3615 1852.011 5217.4538 1851.5429 5217.5 1851.0701 5217.5H1816.47C1815.9972 5217.5 1815.5289 5217.4538 1815.0652 5217.3615 1814.6015 5217.269 1814.1511 5217.133 1813.7144 5216.9519 1813.2776 5216.7707 1812.8627 5216.549 1812.4696 5216.286 1812.0765 5216.0236 1811.7129 5215.725 1811.3787 5215.3908 1811.0443 5215.056 1810.7459 5214.6926 1810.4832 5214.2995 1810.2206 5213.906 1809.9988 5213.4909 1809.8179 5213.054 1809.637 5212.6179 1809.5004 5212.168 1809.4081 5211.7048 1809.316 5211.2409 1809.27 5210.7727 1809.27 5210.3V5176.7C1809.27 5176.2277 1809.316 5175.7595 1809.4081 5175.295 1809.5004 5174.8317 1809.637 5174.3815 1809.8179 5173.9445 1809.9987 5173.5075 1810.2205 5173.0925 1810.4832 5172.699 1810.7457 5172.306 1811.0442 5171.943 1811.3786 5171.6086 1811.7128 5171.274 1812.0764 5170.975 1812.4695 5170.713 1812.8626 5170.4499 1813.2775 5170.228 1813.7144 5170.048 1814.1511 5169.8669 1814.6015 5169.7307 1815.0652 5169.638 1815.5289 5169.546 1815.9972 5169.5 1816.47 5169.5Z"/>
<text xml:space="preserve" transform="matrix(.6574934 0 0 .6574934 -945.68508 -3308.0955)" font-size="12" font-family="Arial"><tspan y="5198" x="1829.4844">S</tspan></text>
<path transform="matrix(.6574934,0,0,.6574934,-945.35629,-3307.7667)" d="M1873.7 5169.5H1908.3C1908.7727 5169.5 1909.2409 5169.546 1909.7045 5169.638 1910.1682 5169.7307 1910.6184 5169.8669 1911.0553 5170.048 1911.492 5170.228 1911.9069 5170.4499 1912.2999 5170.713 1912.693 5170.975 1913.0567 5171.274 1913.391 5171.6086 1913.7252 5171.943 1914.0237 5172.306 1914.2863 5172.699 1914.5488 5173.0925 1914.7706 5173.5075 1914.9515 5173.9445 1915.1325 5174.3815 1915.269 5174.8317 1915.3613 5175.295 1915.4536 5175.7595 1915.4999 5176.2277 1915.5 5176.7V5210.3C1915.4999 5210.7727 1915.4536 5211.2409 1915.3612 5211.704 1915.2689 5212.1677 1915.1323 5212.6179 1914.9514 5213.054 1914.7706 5213.4909 1914.5488 5213.906 1914.2863 5214.2995 1914.0237 5214.6926 1913.7252 5215.056 1913.3909 5215.3908 1913.0567 5215.725 1912.693 5216.0236 1912.2998 5216.286 1911.9067 5216.549 1911.4918 5216.7707 1911.055 5216.9519 1910.6184 5217.133 1910.1682 5217.269 1909.7046 5217.3615 1909.2409 5217.4538 1908.7727 5217.5 1908.3 5217.5H1873.7C1873.2272 5217.5 1872.7589 5217.4538 1872.2952 5217.3615 1871.8314 5217.269 1871.3811 5217.133 1870.9443 5216.9519 1870.5076 5216.7707 1870.0927 5216.549 1869.6997 5216.286 1869.3065 5216.0236 1868.9429 5215.725 1868.6088 5215.3908 1868.2744 5215.056 1867.9758 5214.6926 1867.7133 5214.2995 1867.4507 5213.906 1867.2289 5213.4909 1867.048 5213.054 1866.8671 5212.6179 1866.7305 5212.168 1866.6383 5211.7048 1866.5462 5211.2409 1866.5 5210.7727 1866.5 5210.3V5176.7C1866.5 5176.2277 1866.5462 5175.7595 1866.6383 5175.295 1866.7306 5174.8317 1866.8672 5174.3815 1867.0481 5173.9445 1867.2289 5173.5075 1867.4507 5173.0925 1867.7134 5172.699 1867.9761 5172.306 1868.2745 5171.943 1868.6089 5171.6086 1868.9431 5171.274 1869.3068 5170.975 1869.6997 5170.713 1870.0928 5170.4499 1870.5077 5170.228 1870.9445 5170.048 1871.3811 5169.8669 1871.8314 5169.7307 1872.2952 5169.638 1872.7589 5169.546 1873.2272 5169.5 1873.7 5169.5Z" fill="#fff2cc"/>
<path transform="matrix(.6574934,0,0,.6574934,-945.35629,-3307.7667)" stroke-width="1" stroke-linecap="butt" stroke-miterlimit="4" stroke-linejoin="miter" fill="none" stroke="#d6b656" d="M1873.7 5169.5H1908.3C1908.7727 5169.5 1909.2409 5169.546 1909.7045 5169.638 1910.1682 5169.7307 1910.6184 5169.8669 1911.0553 5170.048 1911.492 5170.228 1911.9069 5170.4499 1912.2999 5170.713 1912.693 5170.975 1913.0567 5171.274 1913.391 5171.6086 1913.7252 5171.943 1914.0237 5172.306 1914.2863 5172.699 1914.5488 5173.0925 1914.7706 5173.5075 1914.9515 5173.9445 1915.1325 5174.3815 1915.269 5174.8317 1915.3613 5175.295 1915.4536 5175.7595 1915.4999 5176.2277 1915.5 5176.7V5210.3C1915.4999 5210.7727 1915.4536 5211.2409 1915.3612 5211.704 1915.2689 5212.1677 1915.1323 5212.6179 1914.9514 5213.054 1914.7706 5213.4909 1914.5488 5213.906 1914.2863 5214.2995 1914.0237 5214.6926 1913.7252 5215.056 1913.3909 5215.3908 1913.0567 5215.725 1912.693 5216.0236 1912.2998 5216.286 1911.9067 5216.549 1911.4918 5216.7707 1911.055 5216.9519 1910.6184 5217.133 1910.1682 5217.269 1909.7046 5217.3615 1909.2409 5217.4538 1908.7727 5217.5 1908.3 5217.5H1873.7C1873.2272 5217.5 1872.7589 5217.4538 1872.2952 5217.3615 1871.8314 5217.269 1871.3811 5217.133 1870.9443 5216.9519 1870.5076 5216.7707 1870.0927 5216.549 1869.6997 5216.286 1869.3065 5216.0236 1868.9429 5215.725 1868.6088 5215.3908 1868.2744 5215.056 1867.9758 5214.6926 1867.7133 5214.2995 1867.4507 5213.906 1867.2289 5213.4909 1867.048 5213.054 1866.8671 5212.6179 1866.7305 5212.168 1866.6383 5211.7048 1866.5462 5211.2409 1866.5 5210.7727 1866.5 5210.3V5176.7C1866.5 5176.2277 1866.5462 5175.7595 1866.6383 5175.295 1866.7306 5174.8317 1866.8672 5174.3815 1867.0481 5173.9445 1867.2289 5173.5075 1867.4507 5173.0925 1867.7134 5172.699 1867.9761 5172.306 1868.2745 5171.943 1868.6089 5171.6086 1868.9431 5171.274 1869.3068 5170.975 1869.6997 5170.713 1870.0928 5170.4499 1870.5077 5170.228 1870.9445 5170.048 1871.3811 5169.8669 1871.8314 5169.7307 1872.2952 5169.638 1872.7589 5169.546 1873.2272 5169.5 1873.7 5169.5Z"/>
<text xml:space="preserve" transform="matrix(.6574934 0 0 .6574934 -945.68508 -3308.0955)" font-size="12" font-family="Arial"><tspan y="5198" x="1888.5">J</tspan></text>
<path transform="matrix(.6574934,0,0,.6574934,-945.35629,-3307.7667)" d="M1873.7 5055.5H1908.3C1908.7727 5055.5 1909.2409 5055.5466 1909.7045 5055.6389 1910.1682 5055.731 1910.6184 5055.867 1911.0553 5056.048 1911.492 5056.2287 1911.9069 5056.45 1912.2999 5056.713 1912.693 5056.9758 1913.0567 5057.2746 1913.391 5057.609 1913.7252 5057.943 1914.0237 5058.306 1914.2863 5058.699 1914.5488 5059.0925 1914.7706 5059.5075 1914.9515 5059.9445 1915.1325 5060.3815 1915.269 5060.8317 1915.3613 5061.2956 1915.4536 5061.759 1915.4999 5062.227 1915.5 5062.7V5096.3C1915.4999 5096.7727 1915.4536 5097.2409 1915.3612 5097.704 1915.2689 5098.1677 1915.1323 5098.6179 1914.9514 5099.0549 1914.7706 5099.4919 1914.5488 5099.9069 1914.2863 5100.3 1914.0237 5100.693 1913.7252 5101.056 1913.3909 5101.3908 1913.0567 5101.725 1912.693 5102.0236 1912.2998 5102.286 1911.9067 5102.549 1911.4918 5102.7707 1911.055 5102.9519 1910.6184 5103.1325 1910.1682 5103.269 1909.7046 5103.3615 1909.2409 5103.4538 1908.7727 5103.5 1908.3 5103.5H1873.7C1873.2272 5103.5 1872.7589 5103.4538 1872.2952 5103.3615 1871.8314 5103.269 1871.3811 5103.1325 1870.9443 5102.9519 1870.5076 5102.7707 1870.0927 5102.549 1869.6997 5102.286 1869.3065 5102.0236 1868.9429 5101.725 1868.6088 5101.3908 1868.2744 5101.056 1867.9758 5100.693 1867.7133 5100.3 1867.4507 5099.9069 1867.2289 5099.4919 1867.048 5099.0549 1866.8671 5098.6179 1866.7305 5098.1677 1866.6383 5097.704 1866.5462 5097.2409 1866.5 5096.7727 1866.5 5096.3V5062.7C1866.5 5062.227 1866.5462 5061.759 1866.6383 5061.295 1866.7306 5060.8317 1866.8672 5060.381 1867.0481 5059.944 1867.2289 5059.5075 1867.4507 5059.0925 1867.7134 5058.699 1867.9761 5058.306 1868.2745 5057.943 1868.6089 5057.609 1868.9431 5057.2746 1869.3068 5056.9758 1869.6997 5056.7136 1870.0928 5056.45 1870.5077 5056.2287 1870.9445 5056.048 1871.3811 5055.867 1871.8314 5055.731 1872.2952 5055.6389 1872.7589 5055.5466 1873.2272 5055.5 1873.7 5055.5Z" fill="#fff2cc"/>
<path transform="matrix(.6574934,0,0,.6574934,-945.35629,-3307.7667)" stroke-width="1" stroke-linecap="butt" stroke-miterlimit="4" stroke-linejoin="miter" fill="none" stroke="#d6b656" d="M1873.7 5055.5H1908.3C1908.7727 5055.5 1909.2409 5055.5466 1909.7045 5055.6389 1910.1682 5055.731 1910.6184 5055.867 1911.0553 5056.048 1911.492 5056.2287 1911.9069 5056.45 1912.2999 5056.713 1912.693 5056.9758 1913.0567 5057.2746 1913.391 5057.609 1913.7252 5057.943 1914.0237 5058.306 1914.2863 5058.699 1914.5488 5059.0925 1914.7706 5059.5075 1914.9515 5059.9445 1915.1325 5060.3815 1915.269 5060.8317 1915.3613 5061.2956 1915.4536 5061.759 1915.4999 5062.227 1915.5 5062.7V5096.3C1915.4999 5096.7727 1915.4536 5097.2409 1915.3612 5097.704 1915.2689 5098.1677 1915.1323 5098.6179 1914.9514 5099.0549 1914.7706 5099.4919 1914.5488 5099.9069 1914.2863 5100.3 1914.0237 5100.693 1913.7252 5101.056 1913.3909 5101.3908 1913.0567 5101.725 1912.693 5102.0236 1912.2998 5102.286 1911.9067 5102.549 1911.4918 5102.7707 1911.055 5102.9519 1910.6184 5103.1325 1910.1682 5103.269 1909.7046 5103.3615 1909.2409 5103.4538 1908.7727 5103.5 1908.3 5103.5H1873.7C1873.2272 5103.5 1872.7589 5103.4538 1872.2952 5103.3615 1871.8314 5103.269 1871.3811 5103.1325 1870.9443 5102.9519 1870.5076 5102.7707 1870.0927 5102.549 1869.6997 5102.286 1869.3065 5102.0236 1868.9429 5101.725 1868.6088 5101.3908 1868.2744 5101.056 1867.9758 5100.693 1867.7133 5100.3 1867.4507 5099.9069 1867.2289 5099.4919 1867.048 5099.0549 1866.8671 5098.6179 1866.7305 5098.1677 1866.6383 5097.704 1866.5462 5097.2409 1866.5 5096.7727 1866.5 5096.3V5062.7C1866.5 5062.227 1866.5462 5061.759 1866.6383 5061.295 1866.7306 5060.8317 1866.8672 5060.381 1867.0481 5059.944 1867.2289 5059.5075 1867.4507 5059.0925 1867.7134 5058.699 1867.9761 5058.306 1868.2745 5057.943 1868.6089 5057.609 1868.9431 5057.2746 1869.3068 5056.9758 1869.6997 5056.7136 1870.0928 5056.45 1870.5077 5056.2287 1870.9445 5056.048 1871.3811 5055.867 1871.8314 5055.731 1872.2952 5055.6389 1872.7589 5055.5466 1873.2272 5055.5 1873.7 5055.5Z"/>
<text xml:space="preserve" transform="matrix(.6574934 0 0 .6574934 -945.68508 -3308.0955)" font-size="12" font-family="Arial"><tspan y="5084" x="1887.4844">B</tspan></text>
<path transform="matrix(.6574934,0,0,.6574934,-945.35629,-3307.7667)" d="M1873.7 5111.5H1908.3C1908.7727 5111.5 1909.2409 5111.5466 1909.7045 5111.6389 1910.1682 5111.7307 1910.6184 5111.8669 1911.0553 5112.048 1911.492 5112.2287 1911.9069 5112.45 1912.2999 5112.7136 1912.693 5112.976 1913.0567 5113.2746 1913.391 5113.609 1913.7252 5113.943 1914.0237 5114.306 1914.2863 5114.699 1914.5488 5115.0925 1914.7706 5115.5075 1914.9515 5115.944 1915.1325 5116.381 1915.269 5116.831 1915.3613 5117.2956 1915.4536 5117.759 1915.4999 5118.227 1915.5 5118.7V5152.3C1915.4999 5152.7727 1915.4536 5153.24 1915.3612 5153.7038 1915.2689 5154.1677 1915.1323 5154.6179 1914.9514 5155.0549 1914.7706 5155.491 1914.5488 5155.906 1914.2863 5156.299 1914.0237 5156.692 1913.7252 5157.056 1913.3909 5157.3908 1913.0567 5157.7248 1912.693 5158.023 1912.2998 5158.286 1911.9067 5158.5485 1911.4918 5158.77 1911.055 5158.951 1910.6184 5159.1325 1910.1682 5159.2687 1909.7046 5159.361 1909.2409 5159.453 1908.7727 5159.4997 1908.3 5159.5H1873.7C1873.2272 5159.4997 1872.7589 5159.453 1872.2952 5159.361 1871.8314 5159.2687 1871.3811 5159.1325 1870.9443 5158.951 1870.5076 5158.77 1870.0927 5158.5485 1869.6997 5158.286 1869.3065 5158.023 1868.9429 5157.7248 1868.6088 5157.3908 1868.2744 5157.056 1867.9758 5156.692 1867.7133 5156.299 1867.4507 5155.906 1867.2289 5155.491 1867.048 5155.0549 1866.8671 5154.6179 1866.7305 5154.1677 1866.6383 5153.7038 1866.5462 5153.24 1866.5 5152.7727 1866.5 5152.3V5118.7C1866.5 5118.227 1866.5462 5117.759 1866.6383 5117.295 1866.7306 5116.831 1866.8672 5116.381 1867.0481 5115.944 1867.2289 5115.5075 1867.4507 5115.093 1867.7134 5114.6999 1867.9761 5114.3068 1868.2745 5113.943 1868.6089 5113.609 1868.9431 5113.2746 1869.3068 5112.976 1869.6997 5112.7136 1870.0928 5112.45 1870.5077 5112.2287 1870.9445 5112.048 1871.3811 5111.8669 1871.8314 5111.7307 1872.2952 5111.6389 1872.7589 5111.5466 1873.2272 5111.5 1873.7 5111.5Z" fill="#fff2cc"/>
<path transform="matrix(.6574934,0,0,.6574934,-945.35629,-3307.7667)" stroke-width="1" stroke-linecap="butt" stroke-miterlimit="4" stroke-linejoin="miter" fill="none" stroke="#d6b656" d="M1873.7 5111.5H1908.3C1908.7727 5111.5 1909.2409 5111.5466 1909.7045 5111.6389 1910.1682 5111.7307 1910.6184 5111.8669 1911.0553 5112.048 1911.492 5112.2287 1911.9069 5112.45 1912.2999 5112.7136 1912.693 5112.976 1913.0567 5113.2746 1913.391 5113.609 1913.7252 5113.943 1914.0237 5114.306 1914.2863 5114.699 1914.5488 5115.0925 1914.7706 5115.5075 1914.9515 5115.944 1915.1325 5116.381 1915.269 5116.831 1915.3613 5117.2956 1915.4536 5117.759 1915.4999 5118.227 1915.5 5118.7V5152.3C1915.4999 5152.7727 1915.4536 5153.24 1915.3612 5153.7038 1915.2689 5154.1677 1915.1323 5154.6179 1914.9514 5155.0549 1914.7706 5155.491 1914.5488 5155.906 1914.2863 5156.299 1914.0237 5156.692 1913.7252 5157.056 1913.3909 5157.3908 1913.0567 5157.7248 1912.693 5158.023 1912.2998 5158.286 1911.9067 5158.5485 1911.4918 5158.77 1911.055 5158.951 1910.6184 5159.1325 1910.1682 5159.2687 1909.7046 5159.361 1909.2409 5159.453 1908.7727 5159.4997 1908.3 5159.5H1873.7C1873.2272 5159.4997 1872.7589 5159.453 1872.2952 5159.361 1871.8314 5159.2687 1871.3811 5159.1325 1870.9443 5158.951 1870.5076 5158.77 1870.0927 5158.5485 1869.6997 5158.286 1869.3065 5158.023 1868.9429 5157.7248 1868.6088 5157.3908 1868.2744 5157.056 1867.9758 5156.692 1867.7133 5156.299 1867.4507 5155.906 1867.2289 5155.491 1867.048 5155.0549 1866.8671 5154.6179 1866.7305 5154.1677 1866.6383 5153.7038 1866.5462 5153.24 1866.5 5152.7727 1866.5 5152.3V5118.7C1866.5 5118.227 1866.5462 5117.759 1866.6383 5117.295 1866.7306 5116.831 1866.8672 5116.381 1867.0481 5115.944 1867.2289 5115.5075 1867.4507 5115.093 1867.7134 5114.6999 1867.9761 5114.3068 1868.2745 5113.943 1868.6089 5113.609 1868.9431 5113.2746 1869.3068 5112.976 1869.6997 5112.7136 1870.0928 5112.45 1870.5077 5112.2287 1870.9445 5112.048 1871.3811 5111.8669 1871.8314 5111.7307 1872.2952 5111.6389 1872.7589 5111.5466 1873.2272 5111.5 1873.7 5111.5Z"/>
<text xml:space="preserve" transform="matrix(.6574934 0 0 .6574934 -945.68508 -3308.0955)" font-size="12" font-family="Arial"><tspan y="5140" x="1887.1563">U</tspan></text>
<path transform="matrix(.6574934,0,0,.6574934,-945.35629,-3307.7667)" d="M1945.46 5145.52 1945.54 5126.19 1981.54 5126.34 1981.62 5107.28 2012.5 5136.14 1981.38 5164.73 1981.46 5145.67 1945.46 5145.52Z" fill="#f5f5f5"/>
<path transform="matrix(.6574934,0,0,.6574934,-945.35629,-3307.7667)" stroke-width="1" stroke-linecap="butt" stroke-miterlimit="10" stroke-linejoin="miter" fill="none" stroke="#666666" d="M1945.46 5145.52 1945.54 5126.19 1981.54 5126.34 1981.62 5107.28 2012.5 5136.14 1981.38 5164.73 1981.46 5145.67 1945.46 5145.52Z"/>
<text xml:space="preserve" transform="matrix(.6574934 0 0 .6574934 -945.68508 -3308.0955)" font-size="16" font-family="Arial"><tspan y="5155" x="2024.8125 2035.4845 2039.0365 2047.9325 2056.8287 2062.1566">Binary</tspan></text>
<text xml:space="preserve" transform="matrix(.6574934 0 0 .6574934 -945.68508 -3308.0955)" font-size="16" font-family="Arial"><tspan y="5175" x="2028.3594 2039.9114 2048.8074 2057.7034">Code</tspan></text>
<text xml:space="preserve" transform="matrix(.6574934 0 0 .6574934 -945.68508 -3308.0955)" font-size="8" font-family="Arial" font-weight="bold"><tspan y="5119" x="2036.875 2041.323 2045.771 2050.219 2054.667">00101</tspan></text>
<text xml:space="preserve" transform="matrix(.6574934 0 0 .6574934 -945.68508 -3308.0955)" font-size="8" font-family="Arial" font-weight="bold"><tspan y="5126" x="2036.875 2041.323 2045.771 2050.219 2054.667">00010</tspan></text>
<text xml:space="preserve" transform="matrix(.6574934 0 0 .6574934 -945.68508 -3308.0955)" font-size="8" font-family="Arial" font-weight="bold"><tspan y="5133" x="2037.0938 2041.1016 2045.5496 2049.9976 2054.4456">11010</tspan></text>
<path transform="matrix(.6574934,0,0,.6574934,-945.35629,-3307.7667)" d="M2033.5 5138.52 2033.51 5098.51H2051.5V5107.51C2051.5 5107.78 2051.61 5108.03 2051.8 5108.22 2051.98 5108.41 2052.24 5108.51 2052.5 5108.51H2061.5V5138.52H2033.5ZM2053.5 5099.92 2060.09 5106.51H2053.5V5099.92ZM2063.21 5106.81 2053.21 5096.8C2053.02 5096.62 2052.77 5096.51 2052.5 5096.51H2033.5C2032.32 5096.51 2031.5 5097.33 2031.5 5098.51V5138.52C2031.5 5139.66 2032.36 5140.52 2033.5 5140.52H2061.5C2062.65 5140.52 2063.51 5139.66 2063.51 5138.52V5107.51C2063.51 5107.25 2063.4 5106.99 2063.21 5106.81Z" fill="#232f3d"/>
<text xml:space="preserve" transform="matrix(.6574934 0 0 .6574934 -945.68508 -3308.0955)" font-size="16" font-family="Arial"><tspan y="5155" x="1478.5938 1483.0418 1491.9378 1496.3858 1505.2817 1510.6098 1523.9378">Interm.</tspan></text>
<text xml:space="preserve" transform="matrix(.6574934 0 0 .6574934 -945.68508 -3308.0955)" font-size="16" font-family="Arial"><tspan y="5175" x="1484.375 1495.927 1504.823 1513.719">Code</tspan></text>
<path transform="matrix(.6574934,0,0,.6574934,-945.35629,-3307.7667)" d="M1504.55 5114.2 1506.45 5114.83 1502.45 5126.83 1500.55 5126.2 1504.55 5114.2ZM1514.13 5119.74C1514.37 5119.92 1514.5 5120.21 1514.5 5120.52 1514.5 5120.82 1514.37 5121.11 1514.13 5121.3L1509.13 5125.3 1507.88 5123.74 1511.9 5120.52 1507.88 5117.3 1509.13 5115.73 1514.13 5119.74ZM1499.13 5117.3 1495.1 5120.52 1499.13 5123.74 1497.88 5125.3 1492.87 5121.3C1492.64 5121.11 1492.5 5120.82 1492.5 5120.52 1492.5 5120.21 1492.64 5119.93 1492.87 5119.74L1497.88 5115.73 1499.13 5117.3ZM1489.5 5138.52 1489.51 5098.51H1507.5V5107.51C1507.5 5107.78 1507.61 5108.03 1507.8 5108.22 1507.98 5108.41 1508.24 5108.51 1508.5 5108.51H1517.5V5138.52H1489.5ZM1509.5 5099.92 1516.09 5106.51H1509.5V5099.92ZM1519.21 5106.81 1509.21 5096.8C1509.02 5096.62 1508.77 5096.51 1508.5 5096.51H1489.5C1488.32 5096.51 1487.5 5097.33 1487.5 5098.51V5138.52C1487.5 5139.66 1488.36 5140.52 1489.5 5140.52H1517.5C1518.65 5140.52 1519.51 5139.66 1519.51 5138.52V5107.51C1519.51 5107.25 1519.4 5106.99 1519.21 5106.81Z" fill="#232f3d"/>
</g>
</svg>
