<svg xmlns="http://www.w3.org/2000/svg" xmlns:xlink="http://www.w3.org/1999/xlink" xmlns:inkscape="http://www.inkscape.org/namespaces/inkscape" version="1.1" width="366" height="115.92" viewBox="0 0 366 115.92">
<defs>
<clipPath id="clip_1">
<path transform="matrix(.24,0,0,.24,0,0)" d="M78.125 21.875H1446.875V459.375H78.125Z" clip-rule="evenodd"/>
</clipPath>
<clipPath id="clip_2">
<path transform="matrix(.24,0,0,.24,0,0)" d="M1241.8123 169.93415H1406.3312V298.20576H1241.8123Z" clip-rule="evenodd"/>
</clipPath>
<clipPath id="clip_3">
<path transform="matrix(.24,0,0,.24,0,0)" d="M78.125 21.875H1446.875V459.375H78.125Z" clip-rule="evenodd"/>
</clipPath>
</defs>
<g clip-path="url(#clip_1)">
<path transform="matrix(.6428403,0,0,.6428403,-442.37565,-3059.6927)" d="M986.25 4769.98H1045.75C1046.5872 4769.98 1047.4163 4770.0617 1048.2373 4770.2248 1049.0584 4770.388 1049.8556 4770.63 1050.629 4770.95 1051.4025 4771.2707 1052.1372 4771.6638 1052.8334 4772.129 1053.5296 4772.5939 1054.1736 4773.122 1054.7655 4773.7145 1055.3574 4774.306 1055.886 4774.95 1056.3511 4775.646 1056.8163 4776.342 1057.209 4777.0769 1057.5294 4777.8508 1057.8497 4778.624 1058.0916 4779.4216 1058.2549 4780.242 1058.4182 4781.0637 1058.4999 4781.8928 1058.5 4782.73V4912.23C1058.4999 4913.0676 1058.4182 4913.8967 1058.2549 4914.7175 1058.0916 4915.538 1057.8497 4916.3356 1057.5294 4917.109 1057.209 4917.882 1056.8163 4918.6169 1056.3512 4919.3127 1055.886 4920.0085 1055.3574 4920.653 1054.7655 4921.245 1054.1736 4921.837 1053.5294 4922.365 1052.8333 4922.8308 1052.1372 4923.296 1051.4025 4923.6887 1050.629 4924.009 1049.8556 4924.329 1049.0584 4924.571 1048.2373 4924.7346 1047.4163 4924.898 1046.5872 4924.98 1045.75 4924.98H986.25C985.4128 4924.98 984.5836 4924.8986 983.7625 4924.735 982.9414 4924.5715 982.1441 4924.3298 981.37069 4924.0095 980.5972 4923.689 979.8625 4923.296 979.1664 4922.8308 978.4703 4922.365 977.8263 4921.837 977.2343 4921.245 976.64236 4920.653 976.1138 4920.0085 975.6487 4919.3127 975.1836 4918.616 974.79086 4917.8815 974.47048 4917.1086 974.1501 4916.335 973.90829 4915.5378 973.74496 4914.717 973.5816 4913.896 973.49996 4913.0676 973.5 4912.23V4782.73C973.49996 4781.8928 973.5816 4781.0637 973.74496 4780.2429 973.90829 4779.4216 974.1501 4778.624 974.47048 4777.8508 974.79086 4777.0769 975.1836 4776.3425 975.6487 4775.6467 976.1138 4774.95 976.64236 4774.306 977.2343 4773.7145 977.8263 4773.122 978.4703 4772.5939 979.1663 4772.129 979.8624 4771.6638 980.5972 4771.2707 981.37069 4770.95 982.1441 4770.63 982.9414 4770.388 983.7625 4770.2248 984.5836 4770.0617 985.4128 4769.98 986.25 4769.98Z" fill="#b1ddf0"/>
<path transform="matrix(.6428403,0,0,.6428403,-442.37565,-3059.6927)" stroke-width="1" stroke-linecap="butt" stroke-miterlimit="4" stroke-linejoin="miter" fill="none" stroke="#10739e" d="M986.25 4769.98H1045.75C1046.5872 4769.98 1047.4163 4770.0617 1048.2373 4770.2248 1049.0584 4770.388 1049.8556 4770.63 1050.629 4770.95 1051.4025 4771.2707 1052.1372 4771.6638 1052.8334 4772.129 1053.5296 4772.5939 1054.1736 4773.122 1054.7655 4773.7145 1055.3574 4774.306 1055.886 4774.95 1056.3511 4775.646 1056.8163 4776.342 1057.209 4777.0769 1057.5294 4777.8508 1057.8497 4778.624 1058.0916 4779.4216 1058.2549 4780.242 1058.4182 4781.0637 1058.4999 4781.8928 1058.5 4782.73V4912.23C1058.4999 4913.0676 1058.4182 4913.8967 1058.2549 4914.7175 1058.0916 4915.538 1057.8497 4916.3356 1057.5294 4917.109 1057.209 4917.882 1056.8163 4918.6169 1056.3512 4919.3127 1055.886 4920.0085 1055.3574 4920.653 1054.7655 4921.245 1054.1736 4921.837 1053.5294 4922.365 1052.8333 4922.8308 1052.1372 4923.296 1051.4025 4923.6887 1050.629 4924.009 1049.8556 4924.329 1049.0584 4924.571 1048.2373 4924.7346 1047.4163 4924.898 1046.5872 4924.98 1045.75 4924.98H986.25C985.4128 4924.98 984.5836 4924.8986 983.7625 4924.735 982.9414 4924.5715 982.1441 4924.3298 981.37069 4924.0095 980.5972 4923.689 979.8625 4923.296 979.1664 4922.8308 978.4703 4922.365 977.8263 4921.837 977.2343 4921.245 976.64236 4920.653 976.1138 4920.0085 975.6487 4919.3127 975.1836 4918.616 974.79086 4917.8815 974.47048 4917.1086 974.1501 4916.335 973.90829 4915.5378 973.74496 4914.717 973.5816 4913.896 973.49996 4913.0676 973.5 4912.23V4782.73C973.49996 4781.8928 973.5816 4781.0637 973.74496 4780.2429 973.90829 4779.4216 974.1501 4778.624 974.47048 4777.8508 974.79086 4777.0769 975.1836 4776.3425 975.6487 4775.6467 976.1138 4774.95 976.64236 4774.306 977.2343 4773.7145 977.8263 4773.122 978.4703 4772.5939 979.1663 4772.129 979.8624 4771.6638 980.5972 4771.2707 981.37069 4770.95 982.1441 4770.63 982.9414 4770.388 983.7625 4770.2248 984.5836 4770.0617 985.4128 4769.98 986.25 4769.98Z"/>
<text xml:space="preserve" transform="matrix(.6428403 0 0 .6428403 -442.6971 -3060.0142)" font-size="16" font-family="Arial"><tspan y="4853" x="978.7031 989.3751 997.3751 1005.3751 1014.2711 1027.5991 1036.4951 1040.0471 1048.9431">Assembler</tspan></text>
<path transform="matrix(.6428403,0,0,.6428403,-442.37565,-3059.6927)" d="M726.46 4909.73 726.54 4890.4 762.54 4890.55 762.62 4871.49 793.5 4900.35 762.38 4928.94 762.46 4909.88 726.46 4909.73Z" fill="#f5f5f5"/>
<path transform="matrix(.6428403,0,0,.6428403,-442.37565,-3059.6927)" stroke-width="1" stroke-linecap="butt" stroke-miterlimit="10" stroke-linejoin="miter" fill="none" stroke="#666666" d="M726.46 4909.73 726.54 4890.4 762.54 4890.55 762.62 4871.49 793.5 4900.35 762.38 4928.94 762.46 4909.88 726.46 4909.73Z"/>
<path transform="matrix(.6428403,0,0,.6428403,-442.37565,-3059.6927)" d="M1153.25 4769.98H1212.75C1213.587 4769.98 1214.4161 4770.0617 1215.2372 4770.2248 1216.0582 4770.388 1216.8555 4770.63 1217.629 4770.95 1218.4025 4771.2707 1219.1372 4771.6638 1219.8334 4772.129 1220.5296 4772.5939 1221.1736 4773.122 1221.7655 4773.7145 1222.3574 4774.306 1222.886 4774.95 1223.3511 4775.646 1223.8162 4776.342 1224.2089 4777.0769 1224.5292 4777.8508 1224.8496 4778.624 1225.0914 4779.4216 1225.2549 4780.242 1225.4182 4781.0637 1225.4999 4781.8928 1225.5 4782.73V4912.23C1225.4999 4913.0676 1225.4182 4913.8967 1225.2549 4914.7175 1225.0914 4915.538 1224.8496 4916.3356 1224.5292 4917.109 1224.2089 4917.882 1223.8162 4918.6169 1223.3511 4919.3127 1222.886 4920.0085 1222.3574 4920.653 1221.7655 4921.245 1221.1736 4921.837 1220.5296 4922.365 1219.8334 4922.8308 1219.1372 4923.296 1218.4025 4923.6887 1217.629 4924.009 1216.8555 4924.329 1216.0582 4924.571 1215.2372 4924.7346 1214.4161 4924.898 1213.587 4924.98 1212.75 4924.98H1153.25C1152.4129 4924.98 1151.5838 4924.8986 1150.7626 4924.735 1149.9415 4924.5715 1149.1443 4924.3298 1148.3707 4924.0095 1147.5973 4923.689 1146.8626 4923.296 1146.1665 4922.8308 1145.4705 4922.365 1144.8264 4921.837 1144.2344 4921.245 1143.6423 4920.653 1143.1138 4920.0085 1142.6487 4919.3127 1142.1835 4918.616 1141.7908 4917.8815 1141.4705 4917.1086 1141.1502 4916.335 1140.9083 4915.5378 1140.7449 4914.717 1140.5816 4913.896 1140.4999 4913.0676 1140.5 4912.23V4782.73C1140.4999 4781.8928 1140.5816 4781.0637 1140.7449 4780.2429 1140.9083 4779.4216 1141.1502 4778.624 1141.4705 4777.8508 1141.7908 4777.0769 1142.1835 4776.3425 1142.6487 4775.6467 1143.1138 4774.95 1143.6423 4774.306 1144.2344 4773.7145 1144.8264 4773.122 1145.4705 4772.5939 1146.1665 4772.129 1146.8626 4771.6638 1147.5973 4771.2707 1148.3707 4770.95 1149.1443 4770.63 1149.9415 4770.388 1150.7626 4770.2248 1151.5838 4770.0617 1152.4129 4769.98 1153.25 4769.98Z" fill="#b0e3e6"/>
<path transform="matrix(.6428403,0,0,.6428403,-442.37565,-3059.6927)" stroke-width="1" stroke-linecap="butt" stroke-miterlimit="4" stroke-linejoin="miter" fill="none" stroke="#0e8088" d="M1153.25 4769.98H1212.75C1213.587 4769.98 1214.4161 4770.0617 1215.2372 4770.2248 1216.0582 4770.388 1216.8555 4770.63 1217.629 4770.95 1218.4025 4771.2707 1219.1372 4771.6638 1219.8334 4772.129 1220.5296 4772.5939 1221.1736 4773.122 1221.7655 4773.7145 1222.3574 4774.306 1222.886 4774.95 1223.3511 4775.646 1223.8162 4776.342 1224.2089 4777.0769 1224.5292 4777.8508 1224.8496 4778.624 1225.0914 4779.4216 1225.2549 4780.242 1225.4182 4781.0637 1225.4999 4781.8928 1225.5 4782.73V4912.23C1225.4999 4913.0676 1225.4182 4913.8967 1225.2549 4914.7175 1225.0914 4915.538 1224.8496 4916.3356 1224.5292 4917.109 1224.2089 4917.882 1223.8162 4918.6169 1223.3511 4919.3127 1222.886 4920.0085 1222.3574 4920.653 1221.7655 4921.245 1221.1736 4921.837 1220.5296 4922.365 1219.8334 4922.8308 1219.1372 4923.296 1218.4025 4923.6887 1217.629 4924.009 1216.8555 4924.329 1216.0582 4924.571 1215.2372 4924.7346 1214.4161 4924.898 1213.587 4924.98 1212.75 4924.98H1153.25C1152.4129 4924.98 1151.5838 4924.8986 1150.7626 4924.735 1149.9415 4924.5715 1149.1443 4924.3298 1148.3707 4924.0095 1147.5973 4923.689 1146.8626 4923.296 1146.1665 4922.8308 1145.4705 4922.365 1144.8264 4921.837 1144.2344 4921.245 1143.6423 4920.653 1143.1138 4920.0085 1142.6487 4919.3127 1142.1835 4918.616 1141.7908 4917.8815 1141.4705 4917.1086 1141.1502 4916.335 1140.9083 4915.5378 1140.7449 4914.717 1140.5816 4913.896 1140.4999 4913.0676 1140.5 4912.23V4782.73C1140.4999 4781.8928 1140.5816 4781.0637 1140.7449 4780.2429 1140.9083 4779.4216 1141.1502 4778.624 1141.4705 4777.8508 1141.7908 4777.0769 1142.1835 4776.3425 1142.6487 4775.6467 1143.1138 4774.95 1143.6423 4774.306 1144.2344 4773.7145 1144.8264 4773.122 1145.4705 4772.5939 1146.1665 4772.129 1146.8626 4771.6638 1147.5973 4771.2707 1148.3707 4770.95 1149.1443 4770.63 1149.9415 4770.388 1150.7626 4770.2248 1151.5838 4770.0617 1152.4129 4769.98 1153.25 4769.98Z"/>
</g>
<g clip-path="url(#clip_2)">
<path transform="matrix(.5484194,0,0,-.5463056,291.45225,259.5632)" d="M49.92 387.3C49.92 381.36299 46.194 375.75999 38.979997 374.53L49.139997 362.65 50.153997 363.996 68.434 389.646V400.516H38.864C46.197999 399.285 49.924 393.344 49.924 387.296L49.92 387.3Z" fill="#f6b21a"/>
<path transform="matrix(.5484194,0,0,-.5463056,291.45225,259.5632)" d="M55.11 360.5 68.43 379.1V358.93H54.1L55.11 360.5ZM29.16 379.99H36.267999C41.349 379.99 43.945 383.689 43.945 387.27299 43.945 390.861 41.459 394.55998 36.267999 394.55998H26.563998V359.03999H44.283998L29.043997 377.18998V379.99098L29.16 379.99Z" fill="#2a3172"/>
<path transform="matrix(.5484194,0,0,-.5463056,291.45225,259.5632)" d="M28.82 344H31.074V354.42H28.82Z" fill="#2a3172"/>
<path transform="matrix(.5484194,0,0,-.5463056,291.45225,259.5632)" d="M35.81 348.2C35.0214 348.2 34.234 348.53334 33.556 349.20603 32.9889 349.77043 32.538 350.55204 32.538 351.45 32.538 352.2329 32.8794 353.014 33.556 353.68803 34.1188 354.251 34.906 354.699 35.81 354.699H47.660005V352.457H35.810007C35.584306 352.457 35.358606 352.3478 35.131505 352.2329 34.905805 352.00743 34.905805 351.89823 34.905805 351.5592 34.905805 351.2259 35.021505 351.1111 35.131505 350.887 35.358606 350.6615 35.474306 350.6615 35.810007 350.6615H44.390008C45.178609 350.6615 45.966009 350.3282 46.64401 349.6555 47.21111 349.09669 47.66201 348.30949 47.66201 347.4115 47.66201 346.5193 47.32061 345.8475 46.64401 345.1735 46.081209 344.6105 45.29401 344.16749 44.390008 344.16749H32.54001V346.40449H44.390008C44.615709 346.40449 44.841409 346.5193 45.06711 346.62998 45.29421 346.85408 45.29421 346.96888 45.29421 347.3022 45.29421 347.52629 45.17851 347.7504 45.06711 347.9745 44.841409 348.19999 44.725709 348.19999 44.390008 348.19999L35.81 348.2Z" fill="#2a3172"/>
<path transform="matrix(.5484194,0,0,-.5463056,291.45225,259.5632)" d="M54.09 354.5H63.794V352.258H54.089998C53.301397 352.258 52.508996 351.9233 51.945997 351.4751 51.384595 350.9121 51.158895 350.2381 51.158895 349.3461 51.158895 348.5589 51.494596 347.7761 51.945997 347.2181 52.508897 346.65513 53.185998 346.4296 54.089998 346.4296H63.794V344.1926H54.089998C52.623998 344.1926 51.493997 344.75 50.364 345.7566 49.35 346.7696 48.782999 347.9986 48.782999 349.4556 48.782999 350.91059 49.350099 352.0316 50.364 353.1536 51.384 354.0513 52.508 354.4996 54.089998 354.4996L54.09 354.5Z" fill="#2a3172"/>
<path transform="matrix(.5484194,0,0,-.5463056,291.45225,259.5632)" d="M27.12 344.1 24.073002 348.241C24.865803 348.3559 25.544003 348.58 26.106003 349.25199 26.667403 349.8108 27.120003 350.59199 27.120003 351.49 27.120003 352.2786 26.782803 353.06 26.106003 353.73399 25.544604 354.29148 24.750002 354.74 23.846003 354.74H11.996002V344.31999H14.256002V348.46098H21.249003L24.296002 344.31999 27.12 344.1ZM14.370001 352.279H23.962002C24.189103 352.279 24.414803 352.1641 24.640501 352.0535 24.866202 351.8294 24.866202 351.7145 24.866202 351.3812 24.866202 351.1571 24.750502 350.93299 24.640501 350.7075 24.4148 350.4834 24.2991 350.4834 23.962002 350.4834H14.370002L14.370001 352.279Z" fill="#2a3172"/>
<path transform="matrix(.5484194,0,0,-.5463056,291.45225,259.5632)" d="M75.2 344 69.104999 354.42H71.701L76.556 346.126 81.404 354.42H84L77.906 344H75.2Z" fill="#f6b21a"/>
<path transform="matrix(.5484194,0,0,-.5463056,291.45225,259.5632)" d="M65.27 348.3H69.667V350.318H65.27Z" fill="#f6b21a"/>
</g>
<g clip-path="url(#clip_3)">
<path transform="matrix(.6428403,0,0,.6428403,-442.37565,-3059.6927)" d="M819.25 4769.98H878.75C879.5871 4769.98 880.4162 4770.0617 881.2373 4770.2248 882.05838 4770.388 882.8556 4770.63 883.6291 4770.95 884.4026 4771.2707 885.1373 4771.6638 885.83346 4772.129 886.52957 4772.5939 887.1736 4773.122 887.76559 4773.7145 888.35757 4774.306 888.88607 4774.95 889.35116 4775.646 889.8163 4776.342 890.209 4777.0769 890.52938 4777.8508 890.84976 4778.624 891.0916 4779.4216 891.25497 4780.242 891.41836 4781.0637 891.5 4781.8928 891.5 4782.73V4912.23C891.5 4913.0676 891.41836 4913.8967 891.25497 4914.7175 891.0916 4915.538 890.8498 4916.3356 890.5294 4917.109 890.20907 4917.882 889.8163 4918.6169 889.3512 4919.3127 888.88607 4920.0085 888.35757 4920.653 887.76559 4921.245 887.1736 4921.837 886.52957 4922.365 885.83346 4922.8308 885.1373 4923.296 884.4026 4923.6887 883.6291 4924.009 882.8556 4924.329 882.05838 4924.571 881.2373 4924.7346 880.4162 4924.898 879.5871 4924.98 878.75 4924.98H819.25C818.4128 4924.98 817.5836 4924.8986 816.7625 4924.735 815.9414 4924.5715 815.14419 4924.3298 814.37069 4924.0095 813.5972 4923.689 812.8625 4923.296 812.1664 4922.8308 811.4703 4922.365 810.8263 4921.837 810.2343 4921.245 809.64236 4920.653 809.11386 4920.0085 808.6487 4919.3127 808.18356 4918.616 807.7908 4917.8815 807.4704 4917.1086 807.15 4916.335 806.9082 4915.5378 806.74496 4914.717 806.5816 4913.896 806.49996 4913.0676 806.5 4912.23V4782.73C806.49996 4781.8928 806.5816 4781.0637 806.74496 4780.2429 806.90829 4779.4216 807.1501 4778.624 807.47048 4777.8508 807.79086 4777.0769 808.1836 4776.3425 808.64877 4775.6467 809.11386 4774.95 809.64236 4774.306 810.2343 4773.7145 810.8263 4773.122 811.4703 4772.5939 812.1663 4772.129 812.8624 4771.6638 813.5972 4771.2707 814.37069 4770.95 815.14419 4770.63 815.9414 4770.388 816.7625 4770.2248 817.5836 4770.0617 818.4128 4769.98 819.25 4769.98Z" fill="#d0cee2"/>
<path transform="matrix(.6428403,0,0,.6428403,-442.37565,-3059.6927)" stroke-width="1" stroke-linecap="butt" stroke-miterlimit="4" stroke-linejoin="miter" fill="none" stroke="#56517e" d="M819.25 4769.98H878.75C879.5871 4769.98 880.4162 4770.0617 881.2373 4770.2248 882.05838 4770.388 882.8556 4770.63 883.6291 4770.95 884.4026 4771.2707 885.1373 4771.6638 885.83346 4772.129 886.52957 4772.5939 887.1736 4773.122 887.76559 4773.7145 888.35757 4774.306 888.88607 4774.95 889.35116 4775.646 889.8163 4776.342 890.209 4777.0769 890.52938 4777.8508 890.84976 4778.624 891.0916 4779.4216 891.25497 4780.242 891.41836 4781.0637 891.5 4781.8928 891.5 4782.73V4912.23C891.5 4913.0676 891.41836 4913.8967 891.25497 4914.7175 891.0916 4915.538 890.8498 4916.3356 890.5294 4917.109 890.20907 4917.882 889.8163 4918.6169 889.3512 4919.3127 888.88607 4920.0085 888.35757 4920.653 887.76559 4921.245 887.1736 4921.837 886.52957 4922.365 885.83346 4922.8308 885.1373 4923.296 884.4026 4923.6887 883.6291 4924.009 882.8556 4924.329 882.05838 4924.571 881.2373 4924.7346 880.4162 4924.898 879.5871 4924.98 878.75 4924.98H819.25C818.4128 4924.98 817.5836 4924.8986 816.7625 4924.735 815.9414 4924.5715 815.14419 4924.3298 814.37069 4924.0095 813.5972 4923.689 812.8625 4923.296 812.1664 4922.8308 811.4703 4922.365 810.8263 4921.837 810.2343 4921.245 809.64236 4920.653 809.11386 4920.0085 808.6487 4919.3127 808.18356 4918.616 807.7908 4917.8815 807.4704 4917.1086 807.15 4916.335 806.9082 4915.5378 806.74496 4914.717 806.5816 4913.896 806.49996 4913.0676 806.5 4912.23V4782.73C806.49996 4781.8928 806.5816 4781.0637 806.74496 4780.2429 806.90829 4779.4216 807.1501 4778.624 807.47048 4777.8508 807.79086 4777.0769 808.1836 4776.3425 808.64877 4775.6467 809.11386 4774.95 809.64236 4774.306 810.2343 4773.7145 810.8263 4773.122 811.4703 4772.5939 812.1663 4772.129 812.8624 4771.6638 813.5972 4771.2707 814.37069 4770.95 815.14419 4770.63 815.9414 4770.388 816.7625 4770.2248 817.5836 4770.0617 818.4128 4769.98 819.25 4769.98Z"/>
<text xml:space="preserve" transform="matrix(.6428403 0 0 .6428403 -442.6971 -3060.0142)" font-size="16" font-family="Arial"><tspan y="4843" x="830.375 841.927 850.823 859.719">Code</tspan></text>
<text xml:space="preserve" transform="matrix(.6428403 0 0 .6428403 -442.6971 -3060.0142)" font-size="16" font-family="Arial"><tspan y="4863" x="818.375 829.047 837.943 846.839 850.391 858.391 866.391 875.287">Analyzer</tspan></text>
<path transform="matrix(.6428403,0,0,.6428403,-442.37565,-3059.6927)" d="M901.46 4909.73 901.54 4890.4 937.54 4890.55 937.62 4871.49 968.5 4900.35 937.38 4928.94 937.46 4909.88 901.46 4909.73Z" fill="#f5f5f5"/>
<path transform="matrix(.6428403,0,0,.6428403,-442.37565,-3059.6927)" stroke-width="1" stroke-linecap="butt" stroke-miterlimit="10" stroke-linejoin="miter" fill="none" stroke="#666666" d="M901.46 4909.73 901.54 4890.4 937.54 4890.55 937.62 4871.49 968.5 4900.35 937.38 4928.94 937.46 4909.88 901.46 4909.73Z"/>
<path transform="matrix(.6428403,0,0,.6428403,-442.37565,-3059.6927)" d="M1066.46 4909.73 1066.54 4890.4 1102.54 4890.55 1102.62 4871.49 1133.5 4900.35 1102.38 4928.94 1102.46 4909.88 1066.46 4909.73Z" fill="#f5f5f5"/>
<path transform="matrix(.6428403,0,0,.6428403,-442.37565,-3059.6927)" stroke-width="1" stroke-linecap="butt" stroke-miterlimit="10" stroke-linejoin="miter" fill="none" stroke="#666666" d="M1066.46 4909.73 1066.54 4890.4 1102.54 4890.55 1102.62 4871.49 1133.5 4900.35 1102.38 4928.94 1102.46 4909.88 1066.46 4909.73Z"/>
<path transform="matrix(.6428403,0,0,.6428403,-442.37565,-3059.6927)" d="M740.08 4824.01V4784H758.08V4793C758.08 4793.27 758.19 4793.52 758.37 4793.71 758.56 4793.9 758.82 4794 759.08 4794H768.08V4824.01H740.08ZM760.08 4785.41 766.67 4792H760.08V4785.41ZM769.79 4792.3 759.79 4782.29C759.6 4782.11 759.35 4782 759.08 4782H740.08C738.9 4782 738.08 4782.82 738.08 4784V4824.01C738.08 4825.15 738.94 4826.01 740.08 4826.01H768.08C769.22 4826.01 770.08 4825.15 770.08 4824.01V4793C770.08 4792.74 769.98 4792.48 769.79 4792.3Z" fill="#232f3d"/>
<text xml:space="preserve" transform="matrix(.6428403 0 0 .6428403 -442.6971 -3060.0142)" font-size="10" font-family="Arial" font-weight="bold"><tspan y="4812" x="740.53128 746.3713 751.9313 758.04129 763.60128">&#x003c;abc&#x003e;</tspan></text>
<text xml:space="preserve" transform="matrix(.6428403 0 0 .6428403 -442.6971 -3060.0142)" font-size="16" font-family="Arial"><tspan y="4841" x="729.1406 739.8126 748.7086 757.6046 762.9326 770.9326">Source</tspan></text>
<text xml:space="preserve" transform="matrix(.6428403 0 0 .6428403 -442.6971 -3060.0142)" font-size="16" font-family="Arial"><tspan y="4861" x="735.3594 746.9114 755.8074 764.70339">Code</tspan></text>
<text xml:space="preserve" transform="matrix(.6428403 0 0 .6428403 -442.6971 -3060.0142)" font-size="16" font-family="Arial"><tspan y="4841" x="906.59378 911.04177 919.93777 924.38577 933.28176 938.60977 951.93777">Interm.</tspan></text>
<text xml:space="preserve" transform="matrix(.6428403 0 0 .6428403 -442.6971 -3060.0142)" font-size="16" font-family="Arial"><tspan y="4861" x="912.375 923.927 932.823 941.719">Code</tspan></text>
<path transform="matrix(.6428403,0,0,.6428403,-442.37565,-3059.6927)" d="M932.55 4799.69 934.45 4800.32 930.45 4812.32 928.55 4811.69 932.55 4799.69ZM942.13 4805.23C942.37 4805.41 942.5 4805.7 942.5 4806.01 942.5 4806.31 942.37 4806.6 942.13 4806.79L937.13 4810.79 935.88 4809.23 939.9 4806.01 935.88 4802.79 937.13 4801.22 942.13 4805.23ZM927.13 4802.79 923.1 4806.01 927.13 4809.23 925.88 4810.79 920.87 4806.79C920.64 4806.6 920.5 4806.31 920.5 4806.01 920.5 4805.7 920.64 4805.42 920.87 4805.23L925.88 4801.22 927.13 4802.79ZM917.5 4824.01 917.51 4784H935.5V4793C935.5 4793.27 935.61 4793.52 935.8 4793.71 935.98 4793.9 936.24 4794 936.5 4794H945.5V4824.01H917.5ZM937.5 4785.41 944.09 4792H937.5V4785.41ZM947.21 4792.3 937.21 4782.29C937.02 4782.11 936.77 4782 936.5 4782H917.5C916.32 4782 915.5 4782.82 915.5 4784V4824.01C915.5 4825.15 916.36 4826.01 917.5 4826.01H945.5C946.65 4826.01 947.51 4825.15 947.51 4824.01V4793C947.51 4792.74 947.4 4792.48 947.21 4792.3Z" fill="#232f3d"/>
<text xml:space="preserve" transform="matrix(.6428403 0 0 .6428403 -442.6971 -3060.0142)" font-size="16" font-family="Arial"><tspan y="4841" x="1075.8125 1086.4845 1090.0365 1098.9325 1107.8285 1113.1565">Binary</tspan></text>
<text xml:space="preserve" transform="matrix(.6428403 0 0 .6428403 -442.6971 -3060.0142)" font-size="16" font-family="Arial"><tspan y="4861" x="1079.3594 1090.9114 1099.8074 1108.7034">Code</tspan></text>
<text xml:space="preserve" transform="matrix(.6428403 0 0 .6428403 -442.6971 -3060.0142)" font-size="8" font-family="Arial" font-weight="bold"><tspan y="4804" x="1087.875 1092.323 1096.771 1101.219 1105.667">00101</tspan></text>
<text xml:space="preserve" transform="matrix(.6428403 0 0 .6428403 -442.6971 -3060.0142)" font-size="8" font-family="Arial" font-weight="bold"><tspan y="4811" x="1087.875 1092.323 1096.771 1101.219 1105.667">00010</tspan></text>
<text xml:space="preserve" transform="matrix(.6428403 0 0 .6428403 -442.6971 -3060.0142)" font-size="8" font-family="Arial" font-weight="bold"><tspan y="4818" x="1088.0938 1092.1016 1096.5496 1100.9976 1105.4456">11010</tspan></text>
<path transform="matrix(.6428403,0,0,.6428403,-442.37565,-3059.6927)" d="M1084.5 4824.01 1084.51 4784H1102.5V4793C1102.5 4793.27 1102.61 4793.52 1102.8 4793.71 1102.98 4793.9 1103.24 4794 1103.5 4794H1112.5V4824.01H1084.5ZM1104.5 4785.41 1111.09 4792H1104.5V4785.41ZM1114.21 4792.3 1104.21 4782.29C1104.02 4782.11 1103.77 4782 1103.5 4782H1084.5C1083.32 4782 1082.5 4782.82 1082.5 4784V4824.01C1082.5 4825.15 1083.36 4826.01 1084.5 4826.01H1112.5C1113.65 4826.01 1114.51 4825.15 1114.51 4824.01V4793C1114.51 4792.74 1114.4 4792.48 1114.21 4792.3Z" fill="#232f3d"/>
</g>
</svg>
